0
SECTION
2
HEADER
9
$INSUNITS
70
4
9
$ACADVER
1
AC1014
9
$HANDSEED
5
FFFF
0
ENDSEC
0
SECTION
2
TABLES
0
TABLE
2
VPORT
5
8
100
AcDbSymbolTable
0
ENDTAB
0
TABLE
2
LTYPE
5
5
100
AcDbSymbolTable
0
LTYPE
5
14
100
AcDbSymbolTableRecord
100
AcDbLinetypeTableRecord
2
BYBLOCK
70
0
0
LTYPE
5
15
100
AcDbSymbolTableRecord
100
AcDbLinetypeTableRecord
2
BYLAYER
70
0
0
ENDTAB
0
TABLE
2
LAYER
5
2
100
AcDbSymbolTable
70
2
0
LAYER
5
50
100
AcDbSymbolTableRecord
100
AcDbLayerTableRecord
2
0
70
0
6
CONTINUOUS
0
ENDTAB
0
TABLE
2
STYLE
5
3
100
AcDbSymbolTable
70
1
0
STYLE
5
11
100
AcDbSymbolTableRecord
100
AcDbTextStyleTableRecord
2
STANDARD
70
0
0
ENDTAB
0
TABLE
2
VIEW
5
6
100
AcDbSymbolTable
70
0
0
ENDTAB
0
TABLE
2
UCS
5
7
100
AcDbSymbolTable
70
0
0
ENDTAB
0
TABLE
2
APPID
5
9
100
AcDbSymbolTable
70
2
0
APPID
5
12
100
AcDbSymbolTableRecord
100
AcDbRegAppTableRecord
2
ACAD
70
0
0
ENDTAB
0
TABLE
2
DIMSTYLE
5
A
100
AcDbSymbolTable
70
1
0
ENDTAB
0
TABLE
2
BLOCK_RECORD
5
1
100
AcDbSymbolTable
70
1
0
BLOCK_RECORD
5
1F
100
AcDbSymbolTableRecord
100
AcDbBlockTableRecord
2
*MODEL_SPACE
0
BLOCK_RECORD
5
1B
100
AcDbSymbolTableRecord
100
AcDbBlockTableRecord
2
*PAPER_SPACE
0
ENDTAB
0
ENDSEC
0
SECTION
2
BLOCKS
0
BLOCK
5
20
100
AcDbEntity
100
AcDbBlockBegin
2
*MODEL_SPACE
0
ENDBLK
5
21
100
AcDbEntity
100
AcDbBlockEnd
0
BLOCK
5
1C
100
AcDbEntity
100
AcDbBlockBegin
2
*PAPER_SPACE
0
ENDBLK
5
1D
100
AcDbEntity
100
AcDbBlockEnd
0
ENDSEC
0
SECTION
2
ENTITIES
0
LWPOLYLINE
5
100
100
AcDbEntity
8
0
100
AcDbPolyline
90
8
70
1
43
0.0
10
35.57500000000001
20
-35.075000000000003
10
35.57500000000001
20
-22.074999999999999
42
0.41421356237309764
10
35.075000000000003
20
-21.575000000000006
10
22.074999999999999
20
-21.575000000000006
42
0.41421356237308982
10
21.575000000000006
20
-22.074999999999999
10
21.575000000000006
20
-35.075000000000003
42
0.41421356237309764
10
22.074999999999999
20
-35.57500000000001
10
35.075000000000003
20
-35.57500000000001
42
0.41421356237308982
0
LWPOLYLINE
5
101
100
AcDbEntity
8
0
100
AcDbPolyline
90
8
70
1
43
0.0
10
40.625
20
-22.074999999999999
42
-0.41421356237309764
10
41.124999999999986
20
-21.575000000000006
10
54.125000000000014
20
-21.575000000000006
42
-0.41421356237307944
10
54.625
20
-22.074999999999999
10
54.625
20
-35.075000000000003
42
-0.41421356237309503
10
54.125000000000014
20
-35.57500000000001
10
41.125
20
-35.57500000000001
42
-0.41421356237308982
10
40.625
20
-35.075000000000003
0
LWPOLYLINE
5
102
100
AcDbEntity
8
0
100
AcDbPolyline
90
8
70
1
43
0.0
10
282.72500000000002
20
-92.724999999999994
42
0.41421356237313667
10
283.22500000000002
20
-92.224999999999994
10
283.22500000000002
20
-79.22499999999998
42
0.41421356237310542
10
282.72500000000002
20
-78.724999999999994
10
269.72500000000002
20
-78.724999999999994
42
0.41421356237312101
10
269.22500000000002
20
-79.22499999999998
10
269.22500000000002
20
-92.224999999999994
42
0.4142135623730534
10
269.72500000000002
20
-92.725000000000009
0
LWPOLYLINE
5
103
100
AcDbEntity
8
0
100
AcDbPolyline
90
8
70
1
43
0.0
10
16.024999999999999
20
-35.57500000000001
42
0.4142135623730937
10
16.525000000000006
20
-35.075000000000003
10
16.524999999999999
20
-22.074999999999999
42
0.41421356237310281
10
16.024999999999999
20
-21.575000000000006
10
3.0249999999999999
20
-21.575000000000006
42
0.41421356237308787
10
2.5250000000000004
20
-22.074999999999999
10
2.5249999999999999
20
-35.075000000000003
42
0.41421356237309631
10
3.0249999999999999
20
-35.57500000000001
0
LWPOLYLINE
5
104
100
AcDbEntity
8
0
100
AcDbPolyline
90
8
70
1
43
0.0
10
31.100000000000001
20
-111.27500000000001
42
0.41421356237309243
10
31.600000000000001
20
-111.77500000000002
10
44.600000000000001
20
-111.77500000000002
42
0.41421356237309503
10
45.100000000000009
20
-111.27500000000001
10
45.100000000000009
20
-98.275000000000006
42
0.41421356237305862
10
44.600000000000001
20
-97.775000000000006
10
31.600000000000001
20
-97.77500000000002
42
0.41421356237312101
10
31.100000000000001
20
-98.275000000000006
0
LINE
5
105
100
AcDbEntity
8
0
100
AcDbLine
10
36.869250000000008
20
-80.632710554437054
30
0
11
36.869250000000008
21
-77.455022191905343
31
0
0
LWPOLYLINE
5
106
100
AcDbEntity
8
0
100
AcDbPolyline
90
8
70
1
43
0.0
10
39.837499999999999
20
-11.775000000000002
42
0.41421356237309631
10
40.337500000000013
20
-11.275000000000002
10
40.337500000000013
20
1.7249999999999988
42
0.41421356237309198
10
39.837499999999999
20
2.2249999999999961
10
26.837499999999999
20
2.2249999999999988
42
0.41421356237309631
10
26.337499999999999
20
1.7249999999999988
10
26.337499999999999
20
-11.275000000000002
42
0.41421356237309243
10
26.837499999999999
20
-11.775000000000002
0
LWPOLYLINE
5
107
100
AcDbEntity
8
0
100
AcDbPolyline
90
8
70
1
43
0.0
10
23.668749999999999
20
-73.174999999999983
10
23.668749999999999
20
-60.174999999999997
42
0.41421356237309764
10
23.168749999999999
20
-59.675000000000011
10
10.168749999999999
20
-59.675000000000004
42
0.41421356237309764
10
9.6687499999999975
20
-60.174999999999997
10
9.6687499999999993
20
-73.174999999999983
42
0.41421356237309764
10
10.168749999999999
20
-73.674999999999983
10
23.168749999999999
20
-73.674999999999983
42
0.41421356237309764
0
LWPOLYLINE
5
108
100
AcDbEntity
8
0
100
AcDbPolyline
90
8
70
1
43
0.0
10
241.15000000000006
20
-111.77500000000002
42
-0.4142135623730846
10
240.65000000000003
20
-111.27500000000001
10
240.65000000000001
20
-98.275000000000006
42
-0.41421356237310542
10
241.15000000000006
20
-97.77500000000002
10
254.15000000000006
20
-97.77500000000002
42
-0.41421356237311585
10
254.65000000000003
20
-98.275000000000006
10
254.65000000000003
20
-111.27500000000001
42
-0.4142135623730846
10
254.15000000000006
20
-111.77500000000003
0
LWPOLYLINE
5
109
100
AcDbEntity
8
0
100
AcDbPolyline
90
8
70
1
43
0.0
10
7.2874999999999988
20
-54.125000000000014
42
0.41421356237308071
10
7.7875000000000005
20
-54.625
10
20.787500000000001
20
-54.625
42
0.41421356237307944
10
21.287500000000001
20
-54.125000000000014
10
21.287500000000001
20
-41.125
42
0.41421356237308204
10
20.787500000000001
20
-40.625
10
7.7875000000000005
20
-40.625
42
0.41421356237309764
10
7.2874999999999988
20
-41.125
0
LINE
5
110
100
AcDbEntity
8
0
100
AcDbLine
10
5.9932499999999997
20
-81.128578648261552
30
0
11
5.9932499999999997
21
-77.455022191905343
31
0
0
LINE
5
111
100
AcDbEntity
8
0
100
AcDbLine
10
272.75675000000001
20
-60.674999999999997
30
0
11
271.31875000000002
21
-60.674999999999997
31
0
0
LINE
5
112
100
AcDbEntity
8
0
100
AcDbLine
10
6.4932500000000015
20
-76.955022191905343
30
0
11
12.49325
21
-76.955022191905343
31
0
0
LWPOLYLINE
5
113
100
AcDbEntity
8
0
100
AcDbPolyline
90
8
70
1
43
0.0
10
178.44999999999999
20
-54.125000000000014
10
178.44999999999999
20
-41.125
42
0.4142135623730846
10
177.95000000000002
20
-40.624999999999972
10
164.95000000000005
20
-40.625
42
0.41421356237311063
10
164.44999999999999
20
-41.125
10
164.44999999999999
20
-54.125000000000014
42
0.41421356237307422
10
164.95000000000005
20
-54.625000000000021
10
177.94999999999999
20
-54.625
42
0.41421356237316787
0
LWPOLYLINE
5
114
100
AcDbEntity
8
0
100
AcDbPolyline
90
8
70
1
43
0.0
10
187.47499999999999
20
-21.574999999999992
42
-0.41421356237314444
10
187.97499999999999
20
-22.074999999999999
10
187.97499999999999
20
-35.075000000000003
42
-0.41421356237309764
10
187.47499999999999
20
-35.575000000000017
10
174.47500000000005
20
-35.57500000000001
42
-0.41421356237310025
10
173.97500000000005
20
-35.075000000000003
10
173.97500000000005
20
-22.074999999999999
42
-0.41421356237312884
10
174.47500000000005
20
-21.575000000000006
0
LWPOLYLINE
5
115
100
AcDbEntity
8
0
100
AcDbPolyline
90
8
70
1
43
0.0
10
21.287500000000001
20
-111.27500000000001
10
21.287500000000001
20
-98.275000000000006
42
0.4142135623730846
10
20.787500000000001
20
-97.775000000000034
10
7.7875000000000005
20
-97.775000000000034
42
0.41421356237308982
10
7.2874999999999988
20
-98.275000000000006
10
7.2874999999999988
20
-111.27500000000001
42
0.41421356237309309
10
7.7875000000000005
20
-111.77500000000002
10
20.787500000000001
20
-111.77500000000002
42
0.41421356237310542
0
LWPOLYLINE
5
116
100
AcDbEntity
8
0
100
AcDbPolyline
90
8
70
1
43
0.0
10
193.02500000000006
20
-22.074999999999999
42
-0.41421356237312884
10
193.52500000000006
20
-21.575000000000006
10
206.52500000000003
20
-21.575000000000028
42
-0.41421356237309764
10
207.02500000000001
20
-22.074999999999999
10
207.02500000000003
20
-35.075000000000003
42
-0.41421356237310025
10
206.52500000000003
20
-35.575000000000017
10
193.52500000000006
20
-35.57500000000001
42
-0.41421356237310025
10
193.02500000000006
20
-35.075000000000003
0
LWPOLYLINE
5
117
100
AcDbEntity
8
0
100
AcDbPolyline
90
8
70
1
43
0.0
10
225.57500000000002
20
-35.57500000000001
42
0.41421356237314444
10
226.07500000000002
20
-35.075000000000003
10
226.07500000000002
20
-22.074999999999999
42
0.41421356237312362
10
225.57500000000002
20
-21.575000000000017
10
212.57499999999999
20
-21.575000000000006
42
0.41421356237301959
10
212.07500000000005
20
-22.074999999999999
10
212.07499999999999
20
-35.075000000000003
42
0.41421356237310025
10
212.57499999999999
20
-35.575000000000017
0
LWPOLYLINE
5
118
100
AcDbEntity
8
0
100
AcDbPolyline
90
8
70
1
43
0.0
10
45.387500000000003
20
-11.275000000000002
42
0.41421356237309764
10
45.887499999999989
20
-11.774999999999995
10
58.887500000000017
20
-11.775
42
0.41421356237311063
10
59.387500000000003
20
-11.275000000000002
10
59.387500000000003
20
1.7249999999999988
42
0.41421356237310381
10
58.887500000000017
20
2.2250000000000032
10
45.887500000000003
20
2.2249999999999988
42
0.41421356237307522
10
45.387500000000003
20
1.7249999999999988
0
LWPOLYLINE
5
119
100
AcDbEntity
8
0
100
AcDbPolyline
90
8
70
1
43
0.0
10
264.96249999999998
20
-97.77500000000002
42
0.41421356237313667
10
264.46249999999998
20
-98.275000000000006
10
264.46249999999998
20
-111.27500000000001
42
0.41421356237313667
10
264.96249999999998
20
-111.77500000000002
10
277.96249999999998
20
-111.77500000000002
42
0.41421356237307422
10
278.46250000000003
20
-111.27500000000001
10
278.46250000000003
20
-98.275000000000006
42
0.41421356237310542
10
277.96249999999998
20
-97.77500000000002
0
LWPOLYLINE
5
120
100
AcDbEntity
8
0
100
AcDbPolyline
90
8
70
1
43
0.0
10
2.5249999999999999
20
-11.275000000000002
42
0.41421356237309959
10
3.0250000000000004
20
-11.775000000000002
10
16.024999999999999
20
-11.775000000000004
42
0.4142135623730937
10
16.525000000000002
20
-11.275000000000004
10
16.525000000000002
20
1.7249999999999988
42
0.41421356237309404
10
16.024999999999999
20
2.2249999999999988
10
3.0249999999999999
20
2.2249999999999988
42
0.4142135623730947
10
2.5249999999999999
20
1.7249999999999988
0
LINE
5
121
100
AcDbEntity
8
0
100
AcDbLine
10
29.869250000000001
20
-92.725000000000023
30
0
11
29.869250000000001
21
-94.224999999999994
31
0
0
LWPOLYLINE
5
122
100
AcDbEntity
8
0
100
AcDbPolyline
90
8
70
1
43
0.0
10
216.55000000000001
20
-54.125000000000014
10
216.55000000000001
20
-41.125
42
0.41421356237304818
10
216.05000000000004
20
-40.625
10
203.05000000000007
20
-40.625
42
0.41421356237311063
10
202.55000000000001
20
-41.125
10
202.55000000000001
20
-54.125000000000014
42
0.41421356237307422
10
203.05000000000007
20
-54.625000000000021
10
216.05000000000004
20
-54.625
42
0.41421356237307422
0
LWPOLYLINE
5
123
100
AcDbEntity
8
0
100
AcDbPolyline
90
8
70
1
43
0.0
10
178.44999999999999
20
-11.275000000000002
10
178.44999999999999
20
1.7249999999999988
42
0.41421356237310053
10
177.94999999999999
20
2.2250000000000152
10
164.95000000000005
20
2.2249999999999988
42
0.41421356237310414
10
164.44999999999999
20
1.7249999999999988
10
164.44999999999999
20
-11.275000000000002
42
0.41421356237307422
10
164.95000000000005
20
-11.775000000000009
10
177.94999999999999
20
-11.775
42
0.41421356237314444
0
LWPOLYLINE
5
124
100
AcDbEntity
8
0
100
AcDbPolyline
90
8
70
1
43
0.0
10
159.40000000000001
20
1.7249999999999988
42
0.41421356237310564
10
158.90000000000001
20
2.2249999999999885
10
145.90000000000001
20
2.2249999999999988
42
0.41421356237307194
10
145.40000000000001
20
1.7249999999999988
10
145.40000000000001
20
-11.275000000000002
42
0.41421356237307422
10
145.90000000000001
20
-11.775
10
158.90000000000001
20
-11.775
42
0.41421356237309243
10
159.40000000000001
20
-11.275000000000002
0
LWPOLYLINE
5
125
100
AcDbEntity
8
0
100
AcDbPolyline
90
8
70
1
43
0.0
10
154.92500000000004
20
-22.074999999999999
42
-0.41421356237307944
10
155.42500000000001
20
-21.575000000000003
10
168.42500000000001
20
-21.574999999999992
42
-0.41421356237310281
10
168.92500000000001
20
-22.074999999999999
10
168.92500000000001
20
-35.075000000000003
42
-0.41421356237310025
10
168.42500000000001
20
-35.57500000000001
10
155.42500000000001
20
-35.57500000000001
42
-0.41421356237307161
10
154.92500000000001
20
-35.075000000000003
0
LWPOLYLINE
5
126
100
AcDbEntity
8
0
100
AcDbPolyline
90
8
70
1
43
0.0
10
197.5
20
-41.125
42
0.41421356237304818
10
197.00000000000003
20
-40.624999999999964
10
184.00000000000003
20
-40.625
42
0.41421356237313667
10
183.5
20
-41.125
10
183.5
20
-54.125000000000014
42
0.41421356237312101
10
184.00000000000003
20
-54.625
10
197.00000000000003
20
-54.625
42
0.41421356237301177
10
197.5
20
-54.125000000000014
0
LWPOLYLINE
5
127
100
AcDbEntity
8
0
100
AcDbPolyline
90
8
70
1
43
0.0
10
221.3125
20
-11.275000000000002
10
221.3125
20
1.7249999999999988
42
0.41421356237310053
10
220.8125
20
2.2250000000000152
10
207.8125
20
2.2249999999999988
42
0.41421356237308332
10
207.31250000000006
20
1.7249999999999988
10
207.31250000000003
20
-11.275000000000002
42
0.41421356237307294
10
207.8125
20
-11.775
10
220.8125
20
-11.775000000000002
42
0.41421356237314316
0
LWPOLYLINE
5
128
100
AcDbEntity
8
0
100
AcDbPolyline
90
8
70
1
43
0.0
10
202.26249999999999
20
-73.174999999999983
10
202.26249999999999
20
-60.174999999999997
42
0.41421356237310025
10
201.76249999999999
20
-59.674999999999983
10
188.76249999999999
20
-59.675000000000004
42
0.4142135623730222
10
188.26250000000002
20
-60.174999999999997
10
188.26249999999999
20
-73.174999999999983
42
0.41421356237313145
10
188.76249999999999
20
-73.674999999999983
10
201.76249999999999
20
-73.674999999999983
42
0.41421356237314183
0
LWPOLYLINE
5
129
100
AcDbEntity
8
0
100
AcDbPolyline
90
8
70
1
43
0.0
10
201.76249999999999
20
2.2250000000000054
42
-0.41421356237314544
10
202.26249999999999
20
1.7249999999999988
10
202.26249999999999
20
-11.275000000000002
42
-0.41421356237310153
10
201.76249999999999
20
-11.77500000000002
10
188.76249999999999
20
-11.775000000000009
42
-0.41421356237312235
10
188.26249999999993
20
-11.275000000000002
10
188.26249999999999
20
1.7249999999999988
42
-0.41421356237312335
10
188.76249999999999
20
2.2249999999999988
0
LWPOLYLINE
5
130
100
AcDbEntity
8
0
100
AcDbPolyline
90
8
70
1
43
0.0
10
221.3125
20
-60.174999999999997
10
221.3125
20
-73.174999999999983
42
-0.41421356237310025
10
220.8125
20
-73.674999999999983
10
207.8125
20
-73.674999999999983
42
-0.4142135623730846
10
207.31250000000006
20
-73.174999999999983
10
207.31250000000003
20
-60.174999999999997
42
-0.41421356237307422
10
207.8125
20
-59.674999999999997
10
220.8125
20
-59.675000000000004
42
-0.41421356237314183
0
LWPOLYLINE
5
131
100
AcDbEntity
8
0
100
AcDbPolyline
90
8
70
1
43
0.0
10
145.11250000000001
20
-60.174999999999997
10
145.11250000000001
20
-73.174999999999983
42
-0.41421356237309503
10
144.61250000000001
20
-73.674999999999997
10
131.61250000000001
20
-73.67500000000004
42
-0.41421356237311063
10
131.11250000000001
20
-73.174999999999983
10
131.11250000000001
20
-60.174999999999997
42
-0.41421356237311585
10
131.61250000000001
20
-59.675000000000004
10
144.61250000000001
20
-59.675000000000004
42
-0.41421356237307422
0
LWPOLYLINE
5
132
100
AcDbEntity
8
0
100
AcDbPolyline
90
8
70
1
43
0.0
10
141.13749999999999
20
-78.724999999999994
42
0.41421356237308982
10
140.63749999999999
20
-79.22499999999998
10
140.63749999999999
20
-92.224999999999994
42
0.41421356237312623
10
141.13749999999999
20
-92.724999999999994
10
154.13749999999999
20
-92.725000000000023
42
0.41421356237306384
10
154.63750000000005
20
-92.224999999999994
10
154.63749999999999
20
-79.22499999999998
42
0.41421356237311585
10
154.13749999999999
20
-78.724999999999994
0
LWPOLYLINE
5
133
100
AcDbEntity
8
0
100
AcDbPolyline
90
8
70
1
43
0.0
10
211.78750000000002
20
-79.22499999999998
42
0.4142135623730846
10
211.28750000000002
20
-78.724999999999966
10
198.28749999999999
20
-78.724999999999994
42
0.4142135623730846
10
197.78750000000005
20
-79.22499999999998
10
197.78750000000002
20
-92.224999999999994
42
0.41421356237309503
10
198.28749999999999
20
-92.725000000000051
10
211.28749999999999
20
-92.724999999999994
42
0.41421356237313667
10
211.78750000000002
20
-92.224999999999994
0
LWPOLYLINE
5
134
100
AcDbEntity
8
0
100
AcDbPolyline
90
8
70
1
43
0.0
10
169.71250000000001
20
-73.67500000000004
42
-0.41421356237311585
10
169.21250000000001
20
-73.174999999999983
10
169.21250000000001
20
-60.174999999999997
42
-0.41421356237310025
10
169.71250000000001
20
-59.674999999999983
10
182.71250000000006
20
-59.675000000000004
42
-0.41421356237310542
10
183.21250000000003
20
-60.174999999999997
10
183.21250000000003
20
-73.174999999999983
42
-0.41421356237309503
10
182.71250000000006
20
-73.674999999999983
0
LWPOLYLINE
5
135
100
AcDbEntity
8
0
100
AcDbPolyline
90
8
70
1
43
0.0
10
135.875
20
-35.075000000000003
10
135.87500000000003
20
-22.074999999999999
42
-0.41421356237307944
10
136.375
20
-21.575000000000003
10
149.375
20
-21.574999999999992
42
-0.41421356237309503
10
149.875
20
-22.074999999999999
10
149.875
20
-35.075000000000003
42
-0.41421356237309243
10
149.375
20
-35.57500000000001
10
136.375
20
-35.57500000000001
42
-0.41421356237307161
0
LWPOLYLINE
5
136
100
AcDbEntity
8
0
100
AcDbPolyline
90
8
70
1
43
0.0
10
173.68750000000003
20
-79.22499999999998
42
0.41421356237312101
10
173.1875
20
-78.725000000000009
10
160.1875
20
-78.724999999999994
42
0.41421356237308982
10
159.6875
20
-79.22499999999998
10
159.6875
20
-92.224999999999994
42
0.41421356237312623
10
160.1875
20
-92.724999999999994
10
173.1875
20
-92.724999999999994
42
0.4142135623730534
10
173.6875
20
-92.224999999999994
0
LWPOLYLINE
5
137
100
AcDbEntity
8
0
100
AcDbPolyline
90
8
70
1
43
0.0
10
158.90000000000001
20
-54.625
42
0.4142135623730846
10
159.40000000000001
20
-54.125000000000014
10
159.40000000000001
20
-41.125
42
0.41421356237308982
10
158.90000000000001
20
-40.625
10
145.90000000000001
20
-40.625
42
0.414213562373069
10
145.40000000000001
20
-41.125
10
145.40000000000001
20
-54.125000000000014
42
0.41421356237306384
10
145.90000000000001
20
-54.625
0
LINE
5
138
100
AcDbEntity
8
0
100
AcDbLine
10
149.875
20
-98.275000000000006
30
0
11
149.875
21
-98.775000000000006
31
0
0
LWPOLYLINE
5
139
100
AcDbEntity
8
0
100
AcDbPolyline
90
8
70
1
43
0.0
10
192.73750000000007
20
-79.22499999999998
42
0.414213562373069
10
192.23750000000001
20
-78.724999999999994
10
179.23750000000001
20
-78.724999999999994
42
0.41421356237313667
10
178.73750000000001
20
-79.22499999999998
10
178.73750000000001
20
-92.224999999999994
42
0.41421356237304302
10
179.23750000000001
20
-92.724999999999994
10
192.23750000000001
20
-92.724999999999994
42
0.41421356237310542
10
192.73750000000007
20
-92.224999999999994
0
LWPOLYLINE
5
140
100
AcDbEntity
8
0
100
AcDbPolyline
90
8
70
1
43
0.0
10
164.16250000000005
20
-73.174999999999983
10
164.16250000000005
20
-60.174999999999997
42
0.41421356237310025
10
163.66250000000005
20
-59.674999999999983
10
150.66249999999999
20
-59.675000000000004
42
0.41421356237310542
10
150.16249999999999
20
-60.174999999999997
10
150.16249999999999
20
-73.174999999999983
42
0.41421356237311585
10
150.66249999999999
20
-73.674999999999983
10
163.66250000000005
20
-73.674999999999983
42
0.41421356237314183
0
LINE
5
141
100
AcDbEntity
8
0
100
AcDbLine
10
27.4918675717954
20
-92.725000000000023
30
0
11
29.869250000000001
21
-92.725000000000023
31
0
0
LWPOLYLINE
5
142
100
AcDbEntity
8
0
100
AcDbPolyline
90
8
70
1
43
0.0
10
256.53125
20
-92.724999999999994
42
0.41421356237311585
10
257.03125
20
-92.224999999999994
10
257.03125000000006
20
-79.22499999999998
42
0.414213562373069
10
256.53125
20
-78.724999999999994
10
243.53125000000006
20
-78.724999999999994
42
0.41421356237311063
10
243.03125
20
-79.22499999999998
10
243.03125
20
-92.224999999999994
42
0.41421356237310542
10
243.53125000000006
20
-92.724999999999994
0
LINE
5
143
100
AcDbEntity
8
0
100
AcDbLine
10
136.375
20
-111.77500000000002
30
0
11
149.375
21
-111.77500000000002
31
0
0
ARC
5
144
100
AcDbEntity
8
0
100
AcDbCircle
10
149.375
20
-98.275000000000006
30
0
40
0.50000000000000711
210
0
220
0
230
1
100
AcDbArc
50
0
51
90
0
LWPOLYLINE
5
145
100
AcDbEntity
8
0
100
AcDbPolyline
90
8
70
1
43
0.0
10
92.224999999999994
20
-35.57500000000001
10
79.22499999999998
20
-35.57500000000001
42
-0.41421356237308982
10
78.724999999999994
20
-35.075000000000003
10
78.724999999999994
20
-22.074999999999999
42
-0.41421356237309764
10
79.22499999999998
20
-21.575000000000006
10
92.224999999999994
20
-21.574999999999992
42
-0.41421356237310281
10
92.725000000000023
20
-22.074999999999999
10
92.725000000000023
20
-35.075000000000003
42
-0.4142135623730846
0
ARC
5
146
100
AcDbEntity
8
0
100
AcDbCircle
10
273.25675000000001
20
-75.174999999999983
30
0
40
0.50000000000000711
210
0
220
0
230
1
100
AcDbArc
50
180
51
270
0
LWPOLYLINE
5
147
100
AcDbEntity
8
0
100
AcDbPolyline
90
8
70
1
43
0.0
10
269.22500000000002
20
1.7249999999999988
42
-0.41421356237312335
10
269.72500000000002
20
2.2249999999999832
10
282.72500000000002
20
2.2250000000000054
42
-0.41421356237314544
10
283.22500000000002
20
1.7249999999999988
10
283.22500000000002
20
-11.275000000000004
42
-0.41421356237310153
10
282.72500000000002
20
-11.775000000000022
10
269.72500000000002
20
-11.775000000000002
42
-0.41421356237312362
10
269.22500000000002
20
-11.274999999999995
0
LINE
5
148
100
AcDbEntity
8
0
100
AcDbLine
10
272.75675000000001
20
-74.424999999999983
30
0
11
272.75675000000001
21
-73.674999999999983
31
0
0
LINE
5
149
100
AcDbEntity
8
0
100
AcDbLine
10
30.369250000000001
20
-94.724999999999994
30
0
11
36.369250000000001
21
-94.724999999999994
31
0
0
ARC
5
150
100
AcDbEntity
8
0
100
AcDbCircle
10
273.25675000000001
20
-58.500000864267349
30
0
40
0.49999999999997158
210
0
220
-0
230
1
100
AcDbArc
50
90
51
180
0
ARC
5
151
100
AcDbEntity
8
0
100
AcDbCircle
10
6.4932500000000015
20
-77.455022191905343
30
0
40
0.49999999999999822
210
0
220
-0
230
1
100
AcDbArc
50
90
51
180
0
LINE
5
152
100
AcDbEntity
8
0
100
AcDbLine
10
12.99325
20
-79.72499999999998
30
0
11
12.993250000000005
21
-77.455022191905385
31
0
0
LINE
5
153
100
AcDbEntity
8
0
100
AcDbLine
10
273.25675000000001
20
-58.000000864267378
30
0
11
279.25675000000001
21
-58.000000864267349
31
0
0
LINE
5
154
100
AcDbEntity
8
0
100
AcDbLine
10
5.9932499999999997
20
-80.224999999999994
30
0
11
5.9932499999999997
21
-94.224999999999994
31
0
0
LINE
5
155
100
AcDbEntity
8
0
100
AcDbLine
10
136.375
20
-97.775000000000034
30
0
11
149.375
21
-97.775000000000006
31
0
0
LINE
5
156
100
AcDbEntity
8
0
100
AcDbLine
10
271.31875000000002
20
-60.174999999999997
30
0
11
271.31875000000002
21
-60.674999999999997
31
0
0
LWPOLYLINE
5
157
100
AcDbEntity
8
0
100
AcDbPolyline
90
8
70
1
43
0.0
10
135.58750000000001
20
-79.22499999999998
10
135.58750000000001
20
-92.224999999999994
42
-0.41421356237304302
10
135.08750000000001
20
-92.724999999999994
10
122.08750000000002
20
-92.725000000000023
42
-0.41421356237311585
10
121.58750000000001
20
-92.224999999999994
10
121.58750000000001
20
-79.22499999999998
42
-0.41421356237308982
10
122.08750000000002
20
-78.724999999999994
10
135.08750000000001
20
-78.724999999999994
42
-0.414213562373069
0
LWPOLYLINE
5
158
100
AcDbEntity
8
0
100
AcDbPolyline
90
8
70
1
43
0.0
10
230.83750000000006
20
-92.224999999999994
42
-0.41421356237306384
10
230.33750000000003
20
-92.725000000000023
10
217.33750000000001
20
-92.725000000000023
42
-0.41421356237306384
10
216.83750000000003
20
-92.224999999999994
10
216.83750000000003
20
-79.22499999999998
42
-0.41421356237304818
10
217.33750000000001
20
-78.724999999999994
10
230.33750000000001
20
-78.724999999999994
42
-0.41421356237311063
10
230.83750000000006
20
-79.22499999999998
0
LINE
5
159
100
AcDbEntity
8
0
100
AcDbLine
10
272.75675000000001
20
-73.674999999999983
30
0
11
272.75675000000001
21
-75.174999999999983
31
0
0
LWPOLYLINE
5
160
100
AcDbEntity
8
0
100
AcDbPolyline
90
8
70
1
43
0.0
10
230.33750000000001
20
-111.77500000000002
42
0.4142135623730846
10
230.83750000000003
20
-111.27500000000001
10
230.83750000000006
20
-98.275000000000006
42
0.41421356237310542
10
230.33750000000001
20
-97.775000000000034
10
217.33750000000001
20
-97.775000000000034
42
0.41421356237309503
10
216.83750000000003
20
-98.275000000000006
10
216.83750000000003
20
-111.27500000000001
42
0.4142135623730846
10
217.33750000000001
20
-111.77500000000002
0
LWPOLYLINE
5
161
100
AcDbEntity
8
0
100
AcDbPolyline
90
8
70
1
43
0.0
10
64.4375
20
-11.275000000000002
42
0.41421356237309764
10
64.9375
20
-11.775000000000004
10
77.9375
20
-11.775000000000002
42
0.41421356237307422
10
78.4375
20
-11.275000000000002
10
78.4375
20
1.7249999999999988
42
0.41421356237309731
10
77.9375
20
2.2249999999999988
10
64.9375
20
2.2249999999999988
42
0.41421356237309764
10
64.4375
20
1.7249999999999988
0
LINE
5
162
100
AcDbEntity
8
0
100
AcDbLine
10
12.99325
20
-93.474999999999994
30
0
11
12.99325
21
-92.725000000000023
31
0
0
LWPOLYLINE
5
163
100
AcDbEntity
8
0
100
AcDbPolyline
90
8
70
1
43
0.0
10
68.412499999999994
20
-97.775000000000034
10
55.412500000000016
20
-97.77500000000002
42
0.41421356237312623
10
54.912500000000009
20
-98.275000000000006
10
54.912500000000009
20
-111.27500000000001
42
0.41421356237310025
10
55.412500000000016
20
-111.77500000000002
10
68.412499999999994
20
-111.77500000000002
42
0.41421356237308982
10
68.912499999999994
20
-111.27500000000001
10
68.912499999999994
20
-98.275000000000006
42
0.41421356237308982
0
LWPOLYLINE
5
164
100
AcDbEntity
8
0
100
AcDbPolyline
90
8
70
1
43
0.0
10
83.987499999999983
20
2.2249999999999988
42
0.4142135623731022
10
83.487499999999983
20
1.7249999999999988
10
83.487500000000026
20
-11.275000000000002
42
0.41421356237310414
10
83.987499999999983
20
-11.775000000000002
10
96.987500000000011
20
-11.775000000000002
42
0.41421356237309503
10
97.487500000000011
20
-11.275000000000002
10
97.487500000000011
20
1.7249999999999988
42
0.41421356237310564
10
96.987500000000011
20
2.2249999999999885
0
LWPOLYLINE
5
165
100
AcDbEntity
8
0
100
AcDbPolyline
90
8
70
1
43
0.0
10
258.91250000000002
20
-11.775000000000002
42
0.41421356237314316
10
259.41250000000002
20
-11.275000000000002
10
259.41250000000002
20
1.7249999999999988
42
0.41421356237310053
10
258.91250000000002
20
2.2250000000000152
10
245.91250000000002
20
2.2249999999999988
42
0.4142135623731209
10
245.41249999999997
20
1.7249999999999988
10
245.41250000000002
20
-11.275000000000002
42
0.41421356237312495
10
245.91250000000002
20
-11.774999999999988
0
LWPOLYLINE
5
166
100
AcDbEntity
8
0
100
AcDbPolyline
90
8
70
1
43
0.0
10
282.72500000000002
20
-21.575000000000006
10
269.72500000000002
20
-21.575000000000006
42
0.41421356237301959
10
269.22500000000008
20
-22.074999999999999
10
269.22500000000002
20
-35.075000000000003
42
0.41421356237310025
10
269.72500000000002
20
-35.57500000000001
10
282.72500000000002
20
-35.57500000000001
42
0.41421356237314444
10
283.22500000000002
20
-35.075000000000003
10
283.22500000000002
20
-22.074999999999999
42
0.41421356237312362
0
ARC
5
167
100
AcDbEntity
8
0
100
AcDbCircle
10
6.4932500000000015
20
-94.224999999999994
30
0
40
0.50000000000000044
210
0
220
0
230
1
100
AcDbArc
50
180
51
270
0
LWPOLYLINE
5
168
100
AcDbEntity
8
0
100
AcDbPolyline
90
8
70
1
43
0.0
10
60.174999999999997
20
-21.575000000000006
42
0.41421356237310542
10
59.675000000000011
20
-22.074999999999999
10
59.675000000000004
20
-35.075000000000003
42
0.41421356237308982
10
60.174999999999997
20
-35.57500000000001
10
73.174999999999983
20
-35.57500000000001
42
0.41421356237309243
10
73.674999999999983
20
-35.075000000000003
10
73.674999999999983
20
-22.074999999999999
42
0.41421356237309243
10
73.174999999999983
20
-21.575000000000006
0
LWPOLYLINE
5
169
100
AcDbEntity
8
0
100
AcDbPolyline
90
8
70
1
43
0.0
10
83.487500000000026
20
-79.22499999999998
10
83.487500000000026
20
-92.224999999999994
42
0.41421356237307422
10
83.987499999999983
20
-92.724999999999994
10
96.987500000000011
20
-92.724999999999994
42
0.41421356237312623
10
97.487500000000011
20
-92.224999999999994
10
97.487500000000011
20
-79.22499999999998
42
0.41421356237308982
10
96.987500000000011
20
-78.724999999999994
10
83.987499999999983
20
-78.724999999999994
42
0.41421356237305862
0
LINE
5
170
100
AcDbEntity
8
0
100
AcDbLine
10
82.22499999999998
20
-100.19814236901398
30
0
11
82.22499999999998
21
-96.500001430511503
31
0
0
LWPOLYLINE
5
171
100
AcDbEntity
8
0
100
AcDbPolyline
90
8
70
1
43
0.0
10
64.4375
20
-79.22499999999998
10
64.4375
20
-92.224999999999994
42
0.41421356237311585
10
64.9375
20
-92.725000000000051
10
77.9375
20
-92.725000000000023
42
0.41421356237309503
10
78.4375
20
-92.224999999999994
10
78.4375
20
-79.22499999999998
42
0.41421356237309503
10
77.9375
20
-78.724999999999994
10
64.9375
20
-78.724999999999994
42
0.41421356237309503
0
LWPOLYLINE
5
172
100
AcDbEntity
8
0
100
AcDbPolyline
90
8
70
1
43
0.0
10
103.03750000000001
20
-78.724999999999994
42
0.41421356237308982
10
102.53749999999999
20
-79.22499999999998
10
102.53749999999999
20
-92.224999999999994
42
0.41421356237311585
10
103.03750000000001
20
-92.725000000000023
10
116.03749999999999
20
-92.725000000000023
42
0.41421356237306384
10
116.53750000000001
20
-92.224999999999994
10
116.53750000000001
20
-79.22499999999998
42
0.41421356237305862
10
116.03750000000002
20
-78.724999999999994
0
LWPOLYLINE
5
173
100
AcDbEntity
8
0
100
AcDbPolyline
90
8
70
1
43
0.0
10
264.46249999999998
20
-54.125000000000014
42
0.41421356237312101
10
264.96249999999998
20
-54.624999999999993
10
277.96249999999998
20
-54.625
42
0.41421356237310542
10
278.46250000000003
20
-54.125000000000014
10
278.46250000000003
20
-41.125
42
0.414213562373069
10
277.96249999999998
20
-40.625
10
264.96249999999998
20
-40.625
42
0.41421356237313667
10
264.46249999999998
20
-41.125
0
LINE
5
174
100
AcDbEntity
8
0
100
AcDbLine
10
30.369250000000001
20
-76.955022191905343
30
0
11
36.369250000000001
21
-76.955022191905343
31
0
0
LINE
5
175
100
AcDbEntity
8
0
100
AcDbLine
10
29.869250000000001
20
-79.72499999999998
30
0
11
28.431250000000002
21
-79.72499999999998
31
0
0
LWPOLYLINE
5
176
100
AcDbEntity
8
0
100
AcDbPolyline
90
8
70
1
43
0.0
10
58.887500000000017
20
-92.725000000000023
42
0.41421356237307422
10
59.387500000000003
20
-92.224999999999994
10
59.387500000000003
20
-79.22499999999998
42
0.41421356237307422
10
58.887500000000017
20
-78.72499999999998
10
45.887500000000003
20
-78.724999999999994
42
0.41421356237309503
10
45.387500000000003
20
-79.22499999999998
10
45.387500000000003
20
-92.224999999999994
42
0.41421356237305862
10
45.887500000000003
20
-92.724999999999994
0
LINE
5
177
100
AcDbEntity
8
0
100
AcDbLine
10
135.875
20
-98.275000000000006
30
0
11
135.875
21
-98.775000000000006
31
0
0
ARC
5
178
100
AcDbEntity
8
0
100
AcDbCircle
10
136.375
20
-98.275000000000006
30
0
40
0.49999999999998934
210
0
220
-0
230
1
100
AcDbArc
50
90
51
180
0
LINE
5
179
100
AcDbEntity
8
0
100
AcDbLine
10
12.99325
20
-79.72499999999998
30
0
11
14.431250000000002
21
-79.72499999999998
31
0
0
LINE
5
180
100
AcDbEntity
8
0
100
AcDbLine
10
82.22499999999998
20
-99.27500000000002
30
0
11
82.22499999999998
21
-113.27500000000001
31
0
0
LINE
5
181
100
AcDbEntity
8
0
100
AcDbLine
10
82.725000000000023
20
-96.000001430511489
30
0
11
88.725000000000023
21
-96.000001430511489
31
0
0
LINE
5
182
100
AcDbEntity
8
0
100
AcDbLine
10
273.25675000000001
20
-75.674999999999983
30
0
11
279.25675000000001
21
-75.674999999999983
31
0
0
LINE
5
183
100
AcDbEntity
8
0
100
AcDbLine
10
270.24823779200091
20
-73.674999999999983
30
0
11
272.75675000000001
21
-73.674999999999983
31
0
0
ARC
5
184
100
AcDbEntity
8
0
100
AcDbCircle
10
82.725000000000023
20
-96.500001430511503
30
0
40
0.50000000000000711
210
0
220
-0
230
1
100
AcDbArc
50
90
51
180
0
LWPOLYLINE
5
185
100
AcDbEntity
8
0
100
AcDbPolyline
90
8
70
1
43
0.0
10
36.362499999999997
20
-73.674999999999983
10
49.362500000000004
20
-73.674999999999983
42
0.4142135623730846
10
49.862499999999997
20
-73.174999999999983
10
49.862499999999997
20
-60.174999999999997
42
0.41421356237309503
10
49.362500000000004
20
-59.675000000000004
10
36.362499999999997
20
-59.675000000000004
42
0.41421356237310025
10
35.862500000000011
20
-60.174999999999997
10
35.862500000000011
20
-73.174999999999983
42
0.41421356237310802
0
ARC
5
186
100
AcDbEntity
8
0
100
AcDbCircle
10
30.369250000000001
20
-94.224999999999994
30
0
40
0.49999999999999822
210
0
220
0
230
1
100
AcDbArc
50
180
51
270
0
ARC
5
187
100
AcDbEntity
8
0
100
AcDbCircle
10
82.724999999999994
20
-113.27500000000001
30
0
40
0.50000000000000711
210
0
220
0
230
1
100
AcDbArc
50
180
51
270
0
LWPOLYLINE
5
188
100
AcDbEntity
8
0
100
AcDbPolyline
90
8
70
1
43
0.0
10
263.67500000000001
20
-21.574999999999992
42
-0.4142135623730846
10
264.17500000000007
20
-22.074999999999999
10
264.17500000000007
20
-35.075000000000003
42
-0.41421356237307422
10
263.67500000000001
20
-35.57500000000001
10
250.67500000000001
20
-35.57500000000001
42
-0.41421356237310025
10
250.17500000000001
20
-35.075000000000003
10
250.17500000000001
20
-22.074999999999999
42
-0.41421356237312884
10
250.67500000000001
20
-21.575000000000006
0
LINE
5
189
100
AcDbEntity
8
0
100
AcDbLine
10
28.431250000000002
20
-79.22499999999998
30
0
11
28.431250000000002
21
-79.72499999999998
31
0
0
LINE
5
190
100
AcDbEntity
8
0
100
AcDbLine
10
279.75675000000001
20
-61.931833066942524
30
0
11
279.75675000000001
21
-58.500000864267356
31
0
0
LINE
5
191
100
AcDbEntity
8
0
100
AcDbLine
10
14.93125
20
-92.725000000000023
30
0
11
27.931249999999999
21
-92.725000000000023
31
0
0
ARC
5
192
100
AcDbEntity
8
0
100
AcDbCircle
10
30.369250000000001
20
-77.455022191905343
30
0
40
0.49999999999999822
210
0
220
-0
230
1
100
AcDbArc
50
90
51
180
0
LINE
5
193
100
AcDbEntity
8
0
100
AcDbLine
10
82.724999999999994
20
-113.77500000000001
30
0
11
88.725000000000023
21
-113.77500000000001
31
0
0
LINE
5
194
100
AcDbEntity
8
0
100
AcDbLine
10
6.4932500000000015
20
-94.724999999999994
30
0
11
12.49325
21
-94.724999999999994
31
0
0
LWPOLYLINE
5
195
100
AcDbEntity
8
0
100
AcDbPolyline
90
8
70
1
43
0.0
10
31.600000000000001
20
-40.625
42
0.41421356237309764
10
31.100000000000009
20
-41.124999999999986
10
31.100000000000001
20
-54.125000000000014
42
0.41421356237311063
10
31.600000000000001
20
-54.625
10
44.600000000000001
20
-54.625
42
0.41421356237309503
10
45.100000000000009
20
-54.125000000000014
10
45.100000000000009
20
-41.125
42
0.41421356237307944
10
44.600000000000001
20
-40.625
0
LINE
5
196
100
AcDbEntity
8
0
100
AcDbLine
10
89.22499999999998
20
-98.775000000000006
30
0
11
89.225000000000023
21
-96.500001430511503
31
0
0
LWPOLYLINE
5
197
100
AcDbEntity
8
0
100
AcDbPolyline
90
8
70
1
43
0.0
10
107.80000000000001
20
-11.775
10
120.8
20
-11.775000000000002
42
0.41421356237307422
10
121.30000000000001
20
-11.275000000000002
10
121.30000000000001
20
1.7249999999999988
42
0.41421356237307444
10
120.8
20
2.2249999999999988
10
107.80000000000001
20
2.2249999999999988
42
0.41421356237309276
10
107.30000000000001
20
1.7249999999999988
10
107.30000000000001
20
-11.275000000000002
42
0.41421356237310542
0
LINE
5
198
100
AcDbEntity
8
0
100
AcDbLine
10
85.725000000000037
20
-96.000001430511489
30
0
11
88.725000000000023
21
-96.000001430511489
31
0
0
ARC
5
199
100
AcDbEntity
8
0
100
AcDbCircle
10
279.25675000000007
20
-58.500000864267321
30
0
40
0.49999999999997158
210
0
220
0
230
1
100
AcDbArc
50
0
51
90.000000000006523
0
LWPOLYLINE
5
200
100
AcDbEntity
8
0
100
AcDbPolyline
90
8
70
1
43
0.0
10
93.012500000000017
20
-73.174999999999983
42
0.41421356237314183
10
93.512500000000003
20
-73.674999999999983
10
106.51250000000003
20
-73.674999999999983
42
0.41421356237310542
10
107.01250000000002
20
-73.174999999999983
10
107.01250000000002
20
-60.174999999999997
42
0.41421356237310542
10
106.51250000000003
20
-59.675000000000004
10
93.512500000000003
20
-59.675000000000004
42
0.4142135623730534
10
93.012500000000017
20
-60.174999999999997
0
ARC
5
201
100
AcDbEntity
8
0
100
AcDbCircle
10
14.93125
20
-79.22499999999998
30
0
40
0.49999999999999822
210
0
220
-0
230
1
100
AcDbArc
50
90
51
180
0
ARC
5
202
100
AcDbEntity
8
0
100
AcDbCircle
10
12.49325
20
-77.455022191905343
30
0
40
0.50000000000000266
210
0
220
0
230
1
100
AcDbArc
50
0
51
90
0
ARC
5
203
100
AcDbEntity
8
0
100
AcDbCircle
10
27.931249999999999
20
-79.22499999999998
30
0
40
0.49999999999999822
210
0
220
0
230
1
100
AcDbArc
50
0
51
90
0
LINE
5
204
100
AcDbEntity
8
0
100
AcDbLine
10
89.22499999999998
20
-111.77500000000002
30
0
11
89.22499999999998
21
-113.27500000000001
31
0
0
LINE
5
205
100
AcDbEntity
8
0
100
AcDbLine
10
36.869250000000008
20
-80.224999999999994
30
0
11
36.869250000000008
21
-94.224999999999994
31
0
0
LINE
5
206
100
AcDbEntity
8
0
100
AcDbLine
10
279.75675000000001
20
-61.174999999999997
30
0
11
279.75675000000001
21
-75.174999999999983
31
0
0
ARC
5
207
100
AcDbEntity
8
0
100
AcDbCircle
10
88.725000000000023
20
-113.27500000000001
30
0
40
0.50000000000000711
210
0
220
0
230
1
100
AcDbArc
50
-90
51
0
0
ARC
5
208
100
AcDbEntity
8
0
100
AcDbCircle
10
36.369250000000001
20
-77.455022191905343
30
0
40
0.49999999999999822
210
0
220
0
230
1
100
AcDbArc
50
0
51
90
0
LINE
5
209
100
AcDbEntity
8
0
100
AcDbLine
10
29.869250000000001
20
-79.72499999999998
30
0
11
29.869250000000001
21
-77.455022191905343
31
0
0
ARC
5
210
100
AcDbEntity
8
0
100
AcDbCircle
10
279.25675000000001
20
-75.174999999999983
30
0
40
0.49999999999999822
210
0
220
0
230
1
100
AcDbArc
50
-90
51
0
0
ARC
5
211
100
AcDbEntity
8
0
100
AcDbCircle
10
88.724999999999994
20
-96.500001430511503
30
0
40
0.50000000000002487
210
0
220
0
230
1
100
AcDbArc
50
0
51
89.999999999996746
0
LWPOLYLINE
5
212
100
AcDbEntity
8
0
100
AcDbPolyline
90
8
70
1
43
0.0
10
226.86250000000001
20
-59.675000000000004
42
0.4142135623730846
10
226.36250000000007
20
-60.174999999999997
10
226.36250000000004
20
-73.174999999999983
42
0.41421356237307422
10
226.86250000000001
20
-73.674999999999983
10
239.86250000000001
20
-73.674999999999983
42
0.41421356237314183
10
240.36250000000001
20
-73.174999999999983
10
240.36250000000001
20
-60.174999999999997
42
0.41421356237310025
10
239.86250000000001
20
-59.675000000000004
0
LWPOLYLINE
5
213
100
AcDbEntity
8
0
100
AcDbPolyline
90
8
70
1
43
0.0
10
111.77500000000002
20
-35.075000000000003
10
111.77500000000002
20
-22.074999999999999
42
0.41421356237311063
10
111.27500000000001
20
-21.575000000000006
10
98.275000000000006
20
-21.575000000000006
42
0.41421356237305601
10
97.77500000000002
20
-22.074999999999999
10
97.775000000000034
20
-35.075000000000003
42
0.41421356237308982
10
98.275000000000006
20
-35.575000000000003
10
111.27500000000001
20
-35.57500000000001
42
0.41421356237309243
0
LWPOLYLINE
5
214
100
AcDbEntity
8
0
100
AcDbPolyline
90
8
70
1
43
0.0
10
69.700000000000003
20
-54.625
10
82.700000000000017
20
-54.625
42
0.4142135623730846
10
83.200000000000017
20
-54.125000000000014
10
83.200000000000017
20
-41.125
42
0.41421356237305862
10
82.700000000000031
20
-40.625
10
69.700000000000003
20
-40.625
42
0.41421356237309503
10
69.200000000000003
20
-41.125
10
69.200000000000003
20
-54.125000000000014
42
0.41421356237311063
0
LWPOLYLINE
5
215
100
AcDbEntity
8
0
100
AcDbPolyline
90
8
70
1
43
0.0
10
55.412500000000016
20
-73.674999999999983
10
68.412499999999994
20
-73.674999999999983
42
0.4142135623730846
10
68.912499999999994
20
-73.174999999999983
10
68.912499999999994
20
-60.174999999999997
42
0.41421356237309503
10
68.412499999999994
20
-59.675000000000004
10
55.412500000000016
20
-59.675000000000004
42
0.41421356237308982
10
54.912500000000009
20
-60.174999999999997
10
54.912500000000009
20
-73.174999999999983
42
0.41421356237313145
0
LWPOLYLINE
5
216
100
AcDbEntity
8
0
100
AcDbPolyline
90
8
70
1
43
0.0
10
221.59999999999999
20
-41.125
42
-0.41421356237312101
10
222.10000000000002
20
-40.625000000000014
10
235.10000000000002
20
-40.624999999999993
42
-0.41421356237314705
10
235.60000000000002
20
-41.125
10
235.60000000000002
20
-54.125000000000014
42
-0.41421356237312101
10
235.10000000000002
20
-54.625
10
222.10000000000002
20
-54.625000000000021
42
-0.41421356237312623
10
221.59999999999997
20
-54.125000000000014
0
LINE
5
217
100
AcDbEntity
8
0
100
AcDbLine
10
15.81927330059081
20
-92.725000000000023
30
0
11
12.99325
21
-92.725000000000023
31
0
0
LWPOLYLINE
5
218
100
AcDbEntity
8
0
100
AcDbPolyline
90
8
70
1
43
0.0
10
50.650000000000013
20
-40.625
42
0.41421356237309503
10
50.150000000000013
20
-41.125
10
50.150000000000013
20
-54.125000000000014
42
0.41421356237311063
10
50.650000000000013
20
-54.625
10
63.65000000000002
20
-54.625
42
0.41421356237307422
10
64.150000000000006
20
-54.125000000000014
10
64.150000000000006
20
-41.125
42
0.41421356237307422
10
63.65000000000002
20
-40.624999999999993
0
LWPOLYLINE
5
219
100
AcDbEntity
8
0
100
AcDbPolyline
90
8
70
1
43
0.0
10
112.56250000000001
20
-59.675000000000004
10
125.5625
20
-59.675000000000004
42
-0.41421356237307422
10
126.0625
20
-60.174999999999997
10
126.06250000000001
20
-73.174999999999983
42
-0.41421356237309503
10
125.5625
20
-73.674999999999983
10
112.56250000000001
20
-73.67500000000004
42
-0.41421356237311063
10
112.0625
20
-73.174999999999983
10
112.0625
20
-60.174999999999997
42
-0.41421356237311585
0
LINE
5
220
100
AcDbEntity
8
0
100
AcDbLine
10
14.431250000000002
20
-79.22499999999998
30
0
11
14.431250000000002
21
-79.72499999999998
31
0
0
LINE
5
221
100
AcDbEntity
8
0
100
AcDbLine
10
248.88075000000001
20
-62.775343498218525
30
0
11
248.88075000000001
21
-58.500000864267356
31
0
0
LINE
5
222
100
AcDbEntity
8
0
100
AcDbLine
10
12.99325
20
-92.725000000000023
30
0
11
12.99325
21
-94.224999999999994
31
0
0
ARC
5
223
100
AcDbEntity
8
0
100
AcDbCircle
10
197.02500000000001
20
-96.500001430511446
30
0
40
0.49999999999997158
210
0
220
-0
230
1
100
AcDbArc
50
89.999999999996746
51
180
0
LINE
5
224
100
AcDbEntity
8
0
100
AcDbLine
10
272.75675000000001
20
-60.674999999999997
30
0
11
272.75675000000007
21
-58.500000864267349
31
0
0
ARC
5
225
100
AcDbEntity
8
0
100
AcDbCircle
10
12.49325
20
-94.224999999999994
30
0
40
0.50000000000000711
210
0
220
0
230
1
100
AcDbArc
50
-90
51
0
0
LINE
5
226
100
AcDbEntity
8
0
100
AcDbLine
10
257.81875000000002
20
-73.674999999999983
30
0
11
270.81875000000002
21
-73.674999999999983
31
0
0
LINE
5
227
100
AcDbEntity
8
0
100
AcDbLine
10
14.93125
20
-78.724999999999994
30
0
11
27.931249999999999
21
-78.724999999999994
31
0
0
ARC
5
228
100
AcDbEntity
8
0
100
AcDbCircle
10
270.81875000000002
20
-60.174999999999997
30
0
40
0.50000000000000711
210
0
220
0
230
1
100
AcDbArc
50
0
51
90
0
LINE
5
229
100
AcDbEntity
8
0
100
AcDbLine
10
257.81875000000002
20
-59.675000000000004
30
0
11
270.81875000000002
21
-59.674999999999997
31
0
0
LWPOLYLINE
5
230
100
AcDbEntity
8
0
100
AcDbPolyline
90
8
70
1
43
0.0
10
139.84999999999999
20
2.2250000000000054
42
-0.41421356237309437
10
140.34999999999999
20
1.7249999999999988
10
140.34999999999999
20
-11.275000000000002
42
-0.41421356237310675
10
139.84999999999999
20
-11.774999999999993
10
126.85000000000001
20
-11.775000000000009
42
-0.41421356237307422
10
126.34999999999999
20
-11.275000000000002
10
126.34999999999999
20
1.7249999999999988
42
-0.41421356237307444
10
126.85000000000001
20
2.2250000000000063
0
LWPOLYLINE
5
231
100
AcDbEntity
8
0
100
AcDbPolyline
90
8
70
1
43
0.0
10
130.32499999999999
20
-21.575000000000006
10
117.32500000000002
20
-21.575000000000006
42
0.41421356237305601
10
116.82500000000003
20
-22.074999999999999
10
116.82500000000003
20
-35.075000000000003
42
0.41421356237311846
10
117.32500000000002
20
-35.574999999999996
10
130.32499999999999
20
-35.57500000000001
42
0.41421356237309243
10
130.82499999999999
20
-35.075000000000003
10
130.82499999999999
20
-22.074999999999999
42
0.41421356237311063
0
LWPOLYLINE
5
232
100
AcDbEntity
8
0
100
AcDbPolyline
90
8
70
1
43
0.0
10
88.250000000000014
20
-41.125
10
88.250000000000014
20
-54.125000000000014
42
0.41421356237311063
10
88.75
20
-54.624999999999993
10
101.75
20
-54.625
42
0.4142135623730846
10
102.25000000000001
20
-54.125000000000014
10
102.25000000000001
20
-41.125
42
0.41421356237308982
10
101.75
20
-40.625
10
88.75
20
-40.625
42
0.41421356237305862
0
LWPOLYLINE
5
233
100
AcDbEntity
8
0
100
AcDbPolyline
90
8
70
1
43
0.0
10
254.15000000000006
20
-40.625
10
241.15000000000006
20
-40.625
42
0.41421356237311063
10
240.65000000000001
20
-41.125
10
240.65000000000001
20
-54.125000000000014
42
0.41421356237307422
10
241.15000000000006
20
-54.625
10
254.15000000000006
20
-54.625
42
0.41421356237307422
10
254.65000000000003
20
-54.125000000000014
10
254.65000000000003
20
-41.125
42
0.41421356237304818
0
LWPOLYLINE
5
234
100
AcDbEntity
8
0
100
AcDbPolyline
90
8
70
1
43
0.0
10
107.80000000000001
20
-40.625
42
0.41421356237308982
10
107.30000000000001
20
-41.125
10
107.30000000000001
20
-54.125000000000014
42
0.41421356237310542
10
107.80000000000001
20
-54.625
10
120.8
20
-54.625
42
0.4142135623730846
10
121.30000000000001
20
-54.125000000000014
10
121.30000000000001
20
-41.125
42
0.41421356237305862
10
120.80000000000001
20
-40.625
0
LWPOLYLINE
5
235
100
AcDbEntity
8
0
100
AcDbPolyline
90
8
70
1
43
0.0
10
140.34999999999999
20
-54.125000000000014
10
140.34999999999999
20
-41.125
42
0.41421356237308982
10
139.84999999999999
20
-40.625
10
126.85000000000001
20
-40.625
42
0.414213562373069
10
126.34999999999999
20
-41.125
10
126.34999999999999
20
-54.125000000000014
42
0.41421356237306384
10
126.85000000000001
20
-54.625
10
139.84999999999999
20
-54.625
42
0.4142135623730846
0
LINE
5
236
100
AcDbEntity
8
0
100
AcDbLine
10
255.88075000000003
20
-60.674999999999997
30
0
11
255.88075000000003
21
-58.500000864267356
31
0
0
LWPOLYLINE
5
237
100
AcDbEntity
8
0
100
AcDbPolyline
90
8
70
1
43
0.0
10
226.86250000000001
20
2.2249999999999988
42
0.41421356237308332
10
226.36250000000007
20
1.7249999999999988
10
226.36250000000004
20
-11.275000000000002
42
0.41421356237307422
10
226.86250000000001
20
-11.775000000000009
10
239.86250000000001
20
-11.775
42
0.41421356237314444
10
240.36250000000001
20
-11.275000000000002
10
240.36250000000001
20
1.7249999999999988
42
0.41421356237310053
10
239.86250000000001
20
2.2250000000000152
0
LINE
5
238
100
AcDbEntity
8
0
100
AcDbLine
10
196.52500000000003
20
-98.775000000000006
30
0
11
149.875
21
-98.775000000000006
31
0
0
LWPOLYLINE
5
239
100
AcDbEntity
8
0
100
AcDbPolyline
90
8
70
1
43
0.0
10
87.46250000000002
20
-73.674999999999983
10
74.462500000000006
20
-73.674999999999983
42
-0.41421356237310542
10
73.962500000000006
20
-73.174999999999983
10
73.962500000000006
20
-60.174999999999997
42
-0.41421356237310542
10
74.462500000000006
20
-59.675000000000004
10
87.46250000000002
20
-59.675000000000004
42
-0.41421356237307422
10
87.96250000000002
20
-60.174999999999997
10
87.962500000000006
20
-73.174999999999983
42
-0.41421356237310542
0
LINE
5
240
100
AcDbEntity
8
0
100
AcDbLine
10
257.31875000000002
20
-60.174999999999997
30
0
11
257.31875000000002
21
-60.674999999999997
31
0
0
LINE
5
241
100
AcDbEntity
8
0
100
AcDbLine
10
255.88075000000003
20
-73.674999999999983
30
0
11
255.88075000000003
21
-75.174999999999983
31
0
0
LWPOLYLINE
5
242
100
AcDbEntity
8
0
100
AcDbPolyline
90
56
70
1
43
0.0
10
209.00000000000006
20
4.7499999999999982
10
228.75000000000003
20
4.7499999999999982
10
228.75000000000003
20
7.7499999999999991
42
-0.414213562373069
10
229.75000000000006
20
8.7499999999999982
10
273.75000000000006
20
8.7499999999999964
42
-0.41421356237308982
10
274.75000000000011
20
7.7499999999999991
10
274.75000000000011
20
4.7499999999999982
10
284.75
20
4.7499999999999947
42
-0.41421356237309015
10
285.75
20
3.7499999999999964
10
285.75
20
-113.41709124572098
42
-0.41421356237310025
10
284.75
20
-114.41709124572101
10
274.75000000000011
20
-114.41709124572097
10
274.75000000000011
20
-117.41709124572098
42
-0.41421356237308982
10
273.75000000000006
20
-118.41709124572098
10
229.75
20
-118.41709124572098
42
-0.41421356237305862
10
228.75000000000003
20
-117.41709124572098
10
228.75000000000003
20
-114.41709124572097
10
209.00000000000006
20
-114.417091245721
10
209.00000000000006
20
-117.41709124572098
42
-0.41421356237308982
10
208.00000000000006
20
-118.41709124572098
10
153.75000000000003
20
-118.41709124572098
42
-0.41421356237309503
10
152.75000000000003
20
-117.41709124572098
10
152.75000000000003
20
-114.417091245721
10
133
20
-114.417091245721
10
133
20
-117.41709124572098
42
-0.41421356237309503
10
132
20
-118.41709124572098
10
77.75
20
-118.41709124572098
42
-0.41421356237309503
10
76.75
20
-117.41709124572098
10
76.75
20
-114.417091245721
10
57.000000000000028
20
-114.417091245721
10
57.000000000000028
20
-117.41709124572098
42
-0.41421356237309503
10
56.000000000000028
20
-118.41709124572098
10
12.000000000000011
20
-118.41709124572098
42
-0.41421356237309437
10
11.000000000000012
20
-117.41709124572098
10
11.000000000000012
20
-114.417091245721
10
1.0000000000000011
20
-114.417091245721
42
-0.41421356237309581
10
0
20
-113.417091245721
10
-2.7755575615628914e-16
20
3.75
42
-0.41421356237309387
10
0.99999999999999989
20
4.7499999999999964
10
11.000000000000005
20
4.7499999999999982
10
11.000000000000005
20
7.7499999999999991
42
-0.4142135623730937
10
12.000000000000007
20
8.75
10
56.000000000000028
20
8.7500000000000018
42
-0.41421356237309664
10
57.000000000000028
20
7.7499999999999991
10
57.000000000000028
20
4.7499999999999982
10
76.75
20
4.7499999999999982
10
76.75
20
7.7499999999999991
42
-0.41421356237309664
10
77.75
20
8.7499999999999982
10
132
20
8.7499999999999964
42
-0.41421356237309537
10
133
20
7.7499999999999991
10
133
20
4.7499999999999982
10
152.75000000000003
20
4.7499999999999982
10
152.75000000000003
20
7.7499999999999991
42
-0.41421356237309798
10
153.75000000000003
20
8.7499999999999982
10
208.00000000000006
20
8.7499999999999964
42
-0.41421356237308982
10
209.00000000000006
20
7.7499999999999991
0
ARC
5
243
100
AcDbEntity
8
0
100
AcDbCircle
10
197.02500000000001
20
-113.27500000000001
30
0
40
0.49999999999997158
210
0
220
0
230
1
100
AcDbArc
50
180
51
270
0
LWPOLYLINE
5
244
100
AcDbEntity
8
0
100
AcDbPolyline
90
8
70
1
43
0.0
10
231.125
20
-22.074999999999999
10
231.125
20
-35.075000000000003
42
0.41421356237310025
10
231.625
20
-35.57500000000001
10
244.62500000000006
20
-35.57500000000001
42
0.4142135623730846
10
245.12500000000003
20
-35.075000000000003
10
245.12500000000003
20
-22.074999999999999
42
0.41421356237307683
10
244.62500000000006
20
-21.574999999999989
10
231.625
20
-21.575000000000006
42
0.41421356237301959
0
ARC
5
245
100
AcDbEntity
8
0
100
AcDbCircle
10
249.38075000000001
20
-58.500000864267321
30
0
40
0.49999999999997158
210
0
220
-0
230
1
100
AcDbArc
50
89.999999999996746
51
180
0
ARC
5
246
100
AcDbEntity
8
0
100
AcDbCircle
10
255.38075000000006
20
-58.500000864267321
30
0
40
0.49999999999997158
210
0
220
0
230
1
100
AcDbArc
50
0
51
90.000000000003254
0
ARC
5
247
100
AcDbEntity
8
0
100
AcDbCircle
10
255.38075000000006
20
-75.174999999999983
30
0
40
0.49999999999999822
210
0
220
0
230
1
100
AcDbArc
50
-90
51
0
0
LINE
5
248
100
AcDbEntity
8
0
100
AcDbLine
10
258.49799500056929
20
-73.674999999999983
30
0
11
255.88075000000003
21
-73.674999999999983
31
0
0
LINE
5
249
100
AcDbEntity
8
0
100
AcDbLine
10
255.88075000000003
20
-60.674999999999997
30
0
11
257.31875000000002
21
-60.674999999999997
31
0
0
ARC
5
250
100
AcDbEntity
8
0
100
AcDbCircle
10
257.81875000000002
20
-60.174999999999997
30
0
40
0.49999999999999822
210
0
220
-0
230
1
100
AcDbArc
50
90
51
180
0
LINE
5
251
100
AcDbEntity
8
0
100
AcDbLine
10
197.02500000000003
20
-96.000001430511475
30
0
11
203.02500000000006
21
-96.000001430511489
31
0
0
LINE
5
252
100
AcDbEntity
8
0
100
AcDbLine
10
248.88075000000001
20
-61.174999999999997
30
0
11
248.88075000000001
21
-75.174999999999983
31
0
0
ARC
5
253
100
AcDbEntity
8
0
100
AcDbCircle
10
203.02500000000006
20
-113.27500000000001
30
0
40
0.50000000000000711
210
0
220
0
230
1
100
AcDbArc
50
-90
51
0
0
LINE
5
254
100
AcDbEntity
8
0
100
AcDbLine
10
249.38075000000003
20
-58.000000864267349
30
0
11
255.38075000000003
21
-58.000000864267349
31
0
0
ARC
5
255
100
AcDbEntity
8
0
100
AcDbCircle
10
36.369250000000001
20
-94.224999999999994
30
0
40
0.50000000000000711
210
0
220
0
230
1
100
AcDbArc
50
-90
51
0
0
LINE
5
256
100
AcDbEntity
8
0
100
AcDbLine
10
138.76939943082962
20
-111.77500000000002
30
0
11
89.22499999999998
21
-111.77500000000002
31
0
0
LINE
5
257
100
AcDbEntity
8
0
100
AcDbLine
10
249.38075000000001
20
-75.674999999999983
30
0
11
255.38075000000006
21
-75.674999999999983
31
0
0
ARC
5
258
100
AcDbEntity
8
0
100
AcDbCircle
10
249.38075000000001
20
-75.174999999999983
30
0
40
0.50000000000000711
210
0
220
0
230
1
100
AcDbArc
50
180
51
270
0
LINE
5
259
100
AcDbEntity
8
0
100
AcDbLine
10
197.02500000000001
20
-113.77499999999998
30
0
11
203.02500000000006
21
-113.77500000000001
31
0
0
LINE
5
260
100
AcDbEntity
8
0
100
AcDbLine
10
89.22499999999998
20
-98.775000000000006
30
0
11
135.875
21
-98.775000000000006
31
0
0
LINE
5
261
100
AcDbEntity
8
0
100
AcDbLine
10
203.52500000000006
20
-99.27500000000002
30
0
11
203.52500000000006
21
-113.27500000000001
31
0
0
ARC
5
262
100
AcDbEntity
8
0
100
AcDbCircle
10
203.02500000000006
20
-96.50000143051146
30
0
40
0.49999999999997158
210
0
220
0
230
1
100
AcDbArc
50
0
51
90
0
LINE
5
263
100
AcDbEntity
8
0
100
AcDbLine
10
196.52500000000003
20
-111.77500000000002
30
0
11
196.52500000000003
21
-113.27500000000001
31
0
0
LINE
5
264
100
AcDbEntity
8
0
100
AcDbLine
10
196.52500000000003
20
-98.775000000000006
30
0
11
196.52500000000003
21
-96.500001430511446
31
0
0
LINE
5
265
100
AcDbEntity
8
0
100
AcDbLine
10
203.52500000000006
20
-107.09831015103113
30
0
11
203.52500000000003
21
-96.50000143051146
31
0
0
LINE
5
266
100
AcDbEntity
8
0
100
AcDbLine
10
148.39081780074767
20
-111.77500000000002
30
0
11
196.52500000000003
21
-111.77500000000002
31
0
0
LINE
5
267
100
AcDbEntity
8
0
100
AcDbLine
10
255.88075000000003
20
-74.424999999999983
30
0
11
255.88075000000003
21
-73.674999999999983
31
0
0
ENDSEC
0
SECTION
2
OBJECTS
0
DICTIONARY
5
C
100
AcDbDictionary
3
ACAD_GROUP
350
D
3
ACAD_MLINESTYLE
350
17
0
DICTIONARY
5
D
100
AcDbDictionary
0
DICTIONARY
5
1A
330
C
100
AcDbDictionary
0
DICTIONARY
5
17
100
AcDbDictionary
0
ENDSEC
0
EOF
