0
SECTION
2
HEADER
9
$INSUNITS
70
4
9
$ACADVER
1
AC1014
9
$HANDSEED
5
FFFF
0
ENDSEC
0
SECTION
2
TABLES
0
TABLE
2
VPORT
5
8
100
AcDbSymbolTable
0
ENDTAB
0
TABLE
2
LTYPE
5
5
100
AcDbSymbolTable
0
LTYPE
5
14
100
AcDbSymbolTableRecord
100
AcDbLinetypeTableRecord
2
BYBLOCK
70
0
0
LTYPE
5
15
100
AcDbSymbolTableRecord
100
AcDbLinetypeTableRecord
2
BYLAYER
70
0
0
ENDTAB
0
TABLE
2
LAYER
5
2
100
AcDbSymbolTable
70
2
0
LAYER
5
50
100
AcDbSymbolTableRecord
100
AcDbLayerTableRecord
2
0
70
0
6
CONTINUOUS
0
ENDTAB
0
TABLE
2
STYLE
5
3
100
AcDbSymbolTable
70
1
0
STYLE
5
11
100
AcDbSymbolTableRecord
100
AcDbTextStyleTableRecord
2
STANDARD
70
0
0
ENDTAB
0
TABLE
2
VIEW
5
6
100
AcDbSymbolTable
70
0
0
ENDTAB
0
TABLE
2
UCS
5
7
100
AcDbSymbolTable
70
0
0
ENDTAB
0
TABLE
2
APPID
5
9
100
AcDbSymbolTable
70
2
0
APPID
5
12
100
AcDbSymbolTableRecord
100
AcDbRegAppTableRecord
2
ACAD
70
0
0
ENDTAB
0
TABLE
2
DIMSTYLE
5
A
100
AcDbSymbolTable
70
1
0
ENDTAB
0
TABLE
2
BLOCK_RECORD
5
1
100
AcDbSymbolTable
70
1
0
BLOCK_RECORD
5
1F
100
AcDbSymbolTableRecord
100
AcDbBlockTableRecord
2
*MODEL_SPACE
0
BLOCK_RECORD
5
1B
100
AcDbSymbolTableRecord
100
AcDbBlockTableRecord
2
*PAPER_SPACE
0
ENDTAB
0
ENDSEC
0
SECTION
2
BLOCKS
0
BLOCK
5
20
100
AcDbEntity
100
AcDbBlockBegin
2
*MODEL_SPACE
0
ENDBLK
5
21
100
AcDbEntity
100
AcDbBlockEnd
0
BLOCK
5
1C
100
AcDbEntity
100
AcDbBlockBegin
2
*PAPER_SPACE
0
ENDBLK
5
1D
100
AcDbEntity
100
AcDbBlockEnd
0
ENDSEC
0
SECTION
2
ENTITIES
0
CIRCLE
5
100
100
AcDbEntity
8
0
100
AcDbCircle
10
20.688608190760974
20
-54.835846147611704
30
0
40
1.0000000000000009
210
0
220
0
230
1
0
CIRCLE
5
101
100
AcDbEntity
8
0
100
AcDbCircle
10
190.05857008849296
20
-219.43800290143588
30
0
40
1.6000000000000005
210
0
220
0
230
1
0
CIRCLE
5
102
100
AcDbEntity
8
0
100
AcDbCircle
10
195.06360819076096
20
6.9188446412883886
30
0
40
1.6000000000000003
210
0
220
0
230
1
0
LWPOLYLINE
5
103
100
AcDbEntity
8
0
100
AcDbPolyline
90
8
70
1
43
0.0
10
-21.311391809238991
20
-130.0858461476117
10
271.4386081907611
20
-130.0858461476117
42
0.41421356237308204
10
273.43860819076104
20
-128.0858461476117
10
273.43860819076104
20
12.918844641288416
42
0.41421356237309698
10
271.43860819076104
20
14.918844641288427
10
-21.31139180923903
20
14.918844641288301
42
0.41421356237310053
10
-23.311391809239051
20
12.918844641288306
10
-23.311391809238987
20
-128.0858461476117
42
0.41421356237309825
0
CIRCLE
5
104
100
AcDbEntity
8
0
100
AcDbCircle
10
125.06360819076107
20
-125.08584614761169
30
0
40
1
210
0
220
0
230
1
0
LWPOLYLINE
5
105
100
AcDbEntity
8
0
100
AcDbPolyline
90
4
70
1
43
0.0
10
11.688608190760977
20
-10.085846147611708
10
17.688608190760977
20
-10.085846147611708
10
17.688608190760977
20
-65.085846147611704
10
11.688608190760977
20
-65.085846147611704
0
LWPOLYLINE
5
106
100
AcDbEntity
8
0
100
AcDbPolyline
90
4
70
1
43
0.0
10
232.43860819076104
20
-10.085846147611619
10
238.43860819076104
20
-10.085846147611619
10
238.43860819076104
20
-65.085846147611619
10
232.43860819076104
20
-65.085846147611591
0
LWPOLYLINE
5
107
100
AcDbEntity
8
0
100
AcDbPolyline
90
20
70
1
43
0.0
10
195.05857008849304
20
-281.43800290143582
10
195.05857008849296
20
-213.43800290143588
42
0.41421356237309503
10
193.05857008849301
20
-211.43800290143594
10
132.05857008849316
20
-211.43800290143599
42
0.41421356237310025
10
130.05857008849316
20
-213.43800290143594
10
130.05857008849313
20
-221.43800290143594
42
0.41421356237310025
10
132.05857008849313
20
-223.43800290143591
10
185.05857008849296
20
-223.43800290143588
10
185.05857008849296
20
-273.43800290143582
10
55.05857008849329
20
-273.43800290143582
10
55.058570088493198
20
-223.43800290143591
10
108.0585700884931
20
-223.43800290143591
42
0.41421356237310025
10
110.05857008849313
20
-221.43800290143591
10
110.05857008849313
20
-213.43800290143591
42
0.41421356237309503
10
108.05857008849317
20
-211.43800290143594
10
47.058570088493319
20
-211.43800290143605
42
0.41421356237310025
10
45.058570088493326
20
-213.43800290143599
10
45.058570088493312
20
-281.43800290143577
42
0.4142135623730846
10
47.058570088493269
20
-283.43800290143577
10
193.05857008849301
20
-283.43800290143582
42
0.41421356237309503
0
CIRCLE
5
108
100
AcDbEntity
8
0
100
AcDbCircle
10
-14.936391809238946
20
-125.08584614761169
30
0
40
0.99999999999999922
210
0
220
0
230
1
0
CIRCLE
5
109
100
AcDbEntity
8
0
100
AcDbCircle
10
20.688608190760974
20
-19.835846147611708
30
0
40
1
210
0
220
0
230
1
0
CIRCLE
5
110
100
AcDbEntity
8
0
100
AcDbCircle
10
195.0636081907611
20
-125.08584614761163
30
0
40
0.99999999999999412
210
0
220
0
230
1
0
LWPOLYLINE
5
111
100
AcDbEntity
8
0
100
AcDbPolyline
90
20
70
1
43
0.0
10
331.84253066988992
20
-122.73085691138957
10
331.84253066988992
20
-69.73085691138985
42
0.41421356237308982
10
329.84253066988992
20
-67.73085691138985
10
321.84253066988992
20
-67.73085691138985
42
0.41421356237308982
10
319.84253066988992
20
-69.73085691138985
10
319.84253066989004
20
-130.73085691138951
42
0.41421356237308982
10
321.8425306698901
20
-132.73085691138951
10
389.84253066988958
20
-132.73085691138951
42
0.41421356237305862
10
391.84253066988953
20
-130.73085691138951
10
391.84253066988953
20
15.269143088609788
42
0.41421356237306772
10
389.84253066988947
20
17.26914308860977
10
321.84253066988992
20
17.269143088609709
42
0.41421356237308887
10
319.84253066988992
20
15.269143088609711
10
319.84253066988992
20
-45.730856911389928
42
0.41421356237308854
10
321.84253066988992
20
-47.730856911389914
10
329.84253066988992
20
-47.730856911389921
42
0.41421356237309243
10
331.84253066988992
20
-45.730856911389914
10
331.84253066988981
20
7.269143088609753
10
381.84253066988953
20
7.2691430886097708
10
381.84253066988953
20
-122.73085691138954
0
CIRCLE
5
112
100
AcDbEntity
8
0
100
AcDbCircle
10
265.0636081907611
20
-125.08584614761162
30
0
40
1.0000000000000142
210
0
220
0
230
1
0
LINE
5
113
100
AcDbEntity
8
0
100
AcDbLine
10
115.063608190761
20
14.918844641288359
30
0
11
115.06360819076096
21
15
31
0
0
CIRCLE
5
114
100
AcDbEntity
8
0
100
AcDbCircle
10
55.063608190760966
20
6.91884464128833
30
0
40
1.6000000000000003
210
0
220
0
230
1
0
CIRCLE
5
115
100
AcDbEntity
8
0
100
AcDbCircle
10
55.063608190760974
20
-52.081155358711655
30
0
40
1.0000000000000031
210
0
220
0
230
1
0
LWPOLYLINE
5
116
100
AcDbEntity
8
0
100
AcDbPolyline
90
8
70
1
43
0.0
10
490.00760619732227
20
-130.25604705641803
10
490.0076061973221
20
15.74395294358149
42
0.41421356237307094
10
488.0076061973221
20
17.74395294358149
10
420.00760619732256
20
17.74395294358149
42
0.41421356237309015
10
418.0076061973225
20
15.743952943581496
10
418.0076061973225
20
-130.25604705641803
42
0.41421356237308721
10
420.00760619732256
20
-132.25604705641803
10
488.00760619732227
20
-132.25604705641803
42
0.41421356237305862
0
CIRCLE
5
117
100
AcDbEntity
8
0
100
AcDbCircle
10
50.058570088493312
20
-278.43800290143582
30
0
40
1.5999999999999983
210
0
220
0
230
1
0
CIRCLE
5
118
100
AcDbEntity
8
0
100
AcDbCircle
10
190.05857008849296
20
-278.43800290143582
30
0
40
1.6000000000000036
210
0
220
0
230
1
0
CIRCLE
5
119
100
AcDbEntity
8
0
100
AcDbCircle
10
438.0076061973225
20
-64.256047056418339
30
0
40
1.0000000000000011
210
0
220
0
230
1
0
LWPOLYLINE
5
120
100
AcDbEntity
8
0
100
AcDbPolyline
90
4
70
1
43
0.0
10
190.06360819076096
20
-47.081155358711648
10
60.063608190760966
20
-47.081155358711648
10
60.063608190760974
20
2.9188446412883584
10
190.06360819076096
20
2.918844641288358
0
CIRCLE
5
121
100
AcDbEntity
8
0
100
AcDbCircle
10
438.0076061973225
20
-50.256047056418225
30
0
40
0.99999999999998812
210
0
220
0
230
1
0
CIRCLE
5
122
100
AcDbEntity
8
0
100
AcDbCircle
10
229.43860819076096
20
-54.835846147611626
30
0
40
0.999999999999998
210
0
220
0
230
1
0
LINE
5
123
100
AcDbEntity
8
0
100
AcDbLine
10
418.0076061973225
20
-67.256047056418254
30
0
11
417.92645083861083
21
-67.256047056418254
31
0
0
CIRCLE
5
124
100
AcDbEntity
8
0
100
AcDbCircle
10
229.43860819076096
20
-19.835846147611612
30
0
40
0.999999999999998
210
0
220
0
230
1
0
CIRCLE
5
125
100
AcDbEntity
8
0
100
AcDbCircle
10
-14.936391809239042
20
6.9188446412882989
30
0
40
1
210
0
220
0
230
1
0
CIRCLE
5
126
100
AcDbEntity
8
0
100
AcDbCircle
10
265.06360819076093
20
6.9188446412884188
30
0
40
1
210
0
220
0
230
1
0
CIRCLE
5
127
100
AcDbEntity
8
0
100
AcDbCircle
10
485.00760619732227
20
12.743952943581498
30
0
40
1.0000000000000004
210
0
220
0
230
1
0
CIRCLE
5
128
100
AcDbEntity
8
0
100
AcDbCircle
10
485.00760619732227
20
-127.25604705641805
30
0
40
1.0000000000000004
210
0
220
0
230
1
0
LWPOLYLINE
5
129
100
AcDbEntity
8
0
100
AcDbPolyline
90
28
70
1
43
0.0
10
-22.233787778152795
20
-188.5969432503353
10
-1.8897877781527717
20
-188.59694325033527
10
1.922712221847229
20
-188.59694325033527
10
79.490140757647225
20
-188.59694325033527
10
82.672646757647243
20
-188.59694325033527
10
160.24007529344726
20
-188.59694325033519
10
163.42257529344724
20
-188.59694325033519
10
240.99000382924729
20
-188.59694325033519
10
244.17250382924732
20
-188.59694325033519
10
264.51621222184724
20
-188.59694325033519
10
264.51621222184724
20
-208.59694325033519
10
264.51621222184724
20
-212.40944325033522
10
264.51621222184724
20
-308.6594432503353
10
187.1412122218473
20
-308.6594432503353
42
0.41421356237309503
10
186.1412122218473
20
-309.65944325033536
10
186.1412122218473
20
-312.6594432503353
10
171.1412122218473
20
-312.6594432503353
10
171.1412122218473
20
-309.65944325033536
42
0.41421356237309503
10
170.14121222184727
20
-308.6594432503353
10
72.141212221847269
20
-308.6594432503353
42
0.41421356237309243
10
71.141212221847255
20
-309.65944325033536
10
71.141212221847255
20
-312.6594432503353
10
56.141212221847255
20
-312.6594432503353
10
56.141212221847255
20
-309.65944325033536
42
0.41421356237308721
10
55.141212221847262
20
-308.6594432503353
10
-22.233787778152777
20
-308.6594432503353
10
-22.233787778152777
20
-212.40944325033524
10
-22.233787778152777
20
-208.5969432503353
0
CIRCLE
5
130
100
AcDbEntity
8
0
100
AcDbCircle
10
425.0076061973225
20
-64.256047056418339
30
0
40
0.99999999999999756
210
0
220
0
230
1
0
CIRCLE
5
131
100
AcDbEntity
8
0
100
AcDbCircle
10
425.0076061973225
20
-50.256047056418225
30
0
40
0.99999999999999734
210
0
220
0
230
1
0
CIRCLE
5
132
100
AcDbEntity
8
0
100
AcDbCircle
10
191.14121222184718
20
-181.59694325033519
30
0
40
1.6000000000000041
210
0
220
0
230
1
0
LWPOLYLINE
5
133
100
AcDbEntity
8
0
100
AcDbPolyline
90
8
70
1
43
0.0
10
-27.233787778152802
20
-175.5969432503353
10
-27.233787778152735
20
-316.6594432503353
42
0.41421356237309503
10
-25.233787778152738
20
-318.6594432503353
10
267.5162122218473
20
-318.65944325033524
42
0.41421356237309503
10
269.51621222184724
20
-316.65944325033524
10
269.51621222184724
20
-175.59694325033513
42
0.4142135623730846
10
267.5162122218473
20
-173.59694325033519
10
-25.233787778152781
20
-173.5969432503353
42
0.41421356237310025
0
CIRCLE
5
134
100
AcDbEntity
8
0
100
AcDbCircle
10
55.063608190761066
20
-125.08584614761169
30
0
40
0.99999999999999778
210
0
220
0
230
1
0
CIRCLE
5
135
100
AcDbEntity
8
0
100
AcDbCircle
10
261.14121222184724
20
-313.65944325033524
30
0
40
1.6000000000000014
210
0
220
0
230
1
0
CIRCLE
5
136
100
AcDbEntity
8
0
100
AcDbCircle
10
121.14121222184723
20
-313.65944325033524
30
0
40
1.6000000000000003
210
0
220
0
230
1
0
CIRCLE
5
137
100
AcDbEntity
8
0
100
AcDbCircle
10
426.00760619732233
20
12.743952943581505
30
0
40
1.0000000000000004
210
0
220
0
230
1
0
CIRCLE
5
138
100
AcDbEntity
8
0
100
AcDbCircle
10
-18.858787778152792
20
-181.59694325033524
30
0
40
1.6000000000000003
210
0
220
0
230
1
0
CIRCLE
5
139
100
AcDbEntity
8
0
100
AcDbCircle
10
125.06360819076096
20
6.9188446412883584
30
0
40
1
210
0
220
0
230
1
0
CIRCLE
5
140
100
AcDbEntity
8
0
100
AcDbCircle
10
327.84253066988981
20
12.269143088609749
30
0
40
1.6000000000000003
210
0
220
0
230
1
0
CIRCLE
5
141
100
AcDbEntity
8
0
100
AcDbCircle
10
50.058570088493326
20
-219.43800290143599
30
0
40
1.6000000000000005
210
0
220
0
230
1
0
CIRCLE
5
142
100
AcDbEntity
8
0
100
AcDbCircle
10
261.14121222184724
20
-181.59694325033519
30
0
40
1.6000000000000023
210
0
220
0
230
1
0
CIRCLE
5
143
100
AcDbEntity
8
0
100
AcDbCircle
10
386.84253066988953
20
12.269143088609749
30
0
40
1.6000000000000034
210
0
220
0
230
1
0
CIRCLE
5
144
100
AcDbEntity
8
0
100
AcDbCircle
10
195.06360819076096
20
-52.081155358711619
30
0
40
0.99999999999999922
210
0
220
0
230
1
0
CIRCLE
5
145
100
AcDbEntity
8
0
100
AcDbCircle
10
51.141212221847212
20
-181.59694325033524
30
0
40
1.5999999999999983
210
0
220
0
230
1
0
CIRCLE
5
146
100
AcDbEntity
8
0
100
AcDbCircle
10
51.141212221847255
20
-313.6594432503353
30
0
40
1.6000000000000014
210
0
220
0
230
1
0
CIRCLE
5
147
100
AcDbEntity
8
0
100
AcDbCircle
10
426.00760619732256
20
-127.25604705641805
30
0
40
1.0000000000000004
210
0
220
0
230
1
0
CIRCLE
5
148
100
AcDbEntity
8
0
100
AcDbCircle
10
-18.858787778152756
20
-313.6594432503353
30
0
40
1.6000000000000003
210
0
220
0
230
1
0
CIRCLE
5
149
100
AcDbEntity
8
0
100
AcDbCircle
10
386.84253066988953
20
-127.73085691138952
30
0
40
1.5999999999999981
210
0
220
0
230
1
0
CIRCLE
5
150
100
AcDbEntity
8
0
100
AcDbCircle
10
121.14121222184721
20
-181.59694325033519
30
0
40
1.6000000000000003
210
0
220
0
230
1
0
CIRCLE
5
151
100
AcDbEntity
8
0
100
AcDbCircle
10
191.1412122218473
20
-313.65944325033519
30
0
40
1.6000000000000145
210
0
220
0
230
1
0
CIRCLE
5
152
100
AcDbEntity
8
0
100
AcDbCircle
10
327.84253066988992
20
-127.73085691138952
30
0
40
1.6000000000000003
210
0
220
0
230
1
0
ENDSEC
0
SECTION
2
OBJECTS
0
DICTIONARY
5
C
100
AcDbDictionary
3
ACAD_GROUP
350
D
3
ACAD_MLINESTYLE
350
17
0
DICTIONARY
5
D
100
AcDbDictionary
0
DICTIONARY
5
1A
330
C
100
AcDbDictionary
0
DICTIONARY
5
17
100
AcDbDictionary
0
ENDSEC
0
EOF
