0
SECTION
2
HEADER
9
$INSUNITS
70
4
9
$ACADVER
1
AC1014
9
$HANDSEED
5
FFFF
0
ENDSEC
0
SECTION
2
TABLES
0
TABLE
2
VPORT
5
8
100
AcDbSymbolTable
0
ENDTAB
0
TABLE
2
LTYPE
5
5
100
AcDbSymbolTable
0
LTYPE
5
14
100
AcDbSymbolTableRecord
100
AcDbLinetypeTableRecord
2
BYBLOCK
70
0
0
LTYPE
5
15
100
AcDbSymbolTableRecord
100
AcDbLinetypeTableRecord
2
BYLAYER
70
0
0
ENDTAB
0
TABLE
2
LAYER
5
2
100
AcDbSymbolTable
70
2
0
LAYER
5
50
100
AcDbSymbolTableRecord
100
AcDbLayerTableRecord
2
0
70
0
6
CONTINUOUS
0
ENDTAB
0
TABLE
2
STYLE
5
3
100
AcDbSymbolTable
70
1
0
STYLE
5
11
100
AcDbSymbolTableRecord
100
AcDbTextStyleTableRecord
2
STANDARD
70
0
0
ENDTAB
0
TABLE
2
VIEW
5
6
100
AcDbSymbolTable
70
0
0
ENDTAB
0
TABLE
2
UCS
5
7
100
AcDbSymbolTable
70
0
0
ENDTAB
0
TABLE
2
APPID
5
9
100
AcDbSymbolTable
70
2
0
APPID
5
12
100
AcDbSymbolTableRecord
100
AcDbRegAppTableRecord
2
ACAD
70
0
0
ENDTAB
0
TABLE
2
DIMSTYLE
5
A
100
AcDbSymbolTable
70
1
0
ENDTAB
0
TABLE
2
BLOCK_RECORD
5
1
100
AcDbSymbolTable
70
1
0
BLOCK_RECORD
5
1F
100
AcDbSymbolTableRecord
100
AcDbBlockTableRecord
2
*MODEL_SPACE
0
BLOCK_RECORD
5
1B
100
AcDbSymbolTableRecord
100
AcDbBlockTableRecord
2
*PAPER_SPACE
0
ENDTAB
0
ENDSEC
0
SECTION
2
BLOCKS
0
BLOCK
5
20
100
AcDbEntity
100
AcDbBlockBegin
2
*MODEL_SPACE
0
ENDBLK
5
21
100
AcDbEntity
100
AcDbBlockEnd
0
BLOCK
5
1C
100
AcDbEntity
100
AcDbBlockBegin
2
*PAPER_SPACE
0
ENDBLK
5
1D
100
AcDbEntity
100
AcDbBlockEnd
0
ENDSEC
0
SECTION
2
ENTITIES
0
LWPOLYLINE
5
100
100
AcDbEntity
8
0
100
AcDbPolyline
90
4
70
1
43
0.0
10
-0.92551121551325277
20
-23.367035326377486
10
285.82448878448673
20
-23.367035326377387
10
285.82448878448679
20
-119.6170353263775
10
-0.92551121551325277
20
-119.61703532637749
0
LWPOLYLINE
5
101
100
AcDbEntity
8
0
100
AcDbPolyline
90
4
70
1
43
0.0
10
-0.92551121551327487
20
0.445464673622609
10
19.162662195197079
20
0.44546467362252429
10
19.162662195197079
20
-19.554535326377493
10
-0.92551121551325277
20
-19.554535326377497
0
LWPOLYLINE
5
102
100
AcDbEntity
8
0
100
AcDbPolyline
90
4
70
1
43
0.0
10
22.975162195197075
20
-19.554535326377493
10
100.54259073099709
20
-19.55453532637744
10
100.54259073099709
20
0.44546467362255987
10
22.975162195197075
20
0.44546467362252429
0
LWPOLYLINE
5
103
100
AcDbEntity
8
0
100
AcDbPolyline
90
5
70
1
43
0.0
10
103.72509673099708
20
0.44546467362255987
10
103.72509673099708
20
-19.55453532637744
10
181.2925252667971
20
-19.554535326377387
10
181.2925252667971
20
-18.348982841826711
10
181.2925252667971
20
0.44546467362259534
0
LWPOLYLINE
5
104
100
AcDbEntity
8
0
100
AcDbPolyline
90
8
70
1
43
0.0
10
290.82448878448679
20
-127.61703532637742
10
290.82448878448673
20
13.445464673622762
42
0.41421356237309176
10
288.82448878448673
20
15.445464673622734
10
-3.9255112155133176
20
15.445464673622597
42
0.41421356237308876
10
-5.925511215513275
20
13.445464673622599
10
-5.9255112155132075
20
-127.61703532637753
42
0.41421356237309742
10
-3.9255112155132159
20
-129.6170353263775
10
288.82448878448685
20
-129.61703532637739
42
0.41421356237308721
0
LWPOLYLINE
5
105
100
AcDbEntity
8
0
100
AcDbPolyline
90
4
70
1
43
0.0
10
265.22495380259721
20
0.44546467362263092
10
285.82448878448673
20
0.44546467362258935
10
285.82448878448673
20
-19.554535326377351
10
265.22495380259721
20
-19.554535326377369
0
CIRCLE
5
106
100
AcDbEntity
8
0
100
AcDbCircle
10
212.5
20
-124.61703532637749
30
0
40
0.99999999999999412
210
0
220
0
230
1
0
LWPOLYLINE
5
107
100
AcDbEntity
8
0
100
AcDbPolyline
90
56
70
1
43
0.0
10
9.6874411793201674
20
-451.9626334856415
10
56.937441179320189
20
-451.96263348564167
10
56.937441179320196
20
-448.46263348564213
42
-0.41421356237312884
10
57.937441179320182
20
-447.46263348564213
10
74.43744117932016
20
-447.46263348564213
42
-0.4142135623730846
10
75.437441179320217
20
-448.46263348564207
10
75.437441179320189
20
-451.96263348564167
10
132.68744117932019
20
-451.96263348564167
10
132.68744117932019
20
-448.46263348564185
42
-0.41421356237313145
10
133.68744117932019
20
-447.46263348564185
10
150.68744117932022
20
-447.46263348564185
42
-0.41421356237313145
10
151.68744117932019
20
-448.46263348564185
10
151.68744117932019
20
-451.96263348564173
10
208.93744117932016
20
-451.96263348564173
10
208.93744117932016
20
-448.46263348564185
42
-0.41421356237313667
10
209.93744117932016
20
-447.46263348564185
10
226.43744117932013
20
-447.46263348564213
42
-0.41421356237309503
10
227.43744117932013
20
-448.46263348564213
10
227.43744117932013
20
-451.96263348564167
10
274.68744117932027
20
-451.96263348564167
10
274.68744117932027
20
-448.46263348564162
42
-0.4142135623730846
10
275.68744117932033
20
-447.46263348564156
10
285.56244117932056
20
-447.46263348564156
10
285.56244117932039
20
-352.91691666208999
10
285.56244117932039
20
-349.10441666209005
10
285.56244117932016
20
-327.40013348563423
10
275.68744117932044
20
-327.40013348563548
42
-0.41421356237310542
10
274.68744117932033
20
-326.40013348563559
10
274.68744117932027
20
-322.90013348564173
10
227.43744117932033
20
-322.90013348564173
10
227.43744117932027
20
-326.4001334856415
42
-0.41421356237310542
10
226.4374411793203
20
-327.4001334856415
10
209.93744117932033
20
-327.40013348564162
42
-0.41421356237313667
10
208.9374411793203
20
-326.40013348564162
10
208.9374411793203
20
-322.90013348564173
10
151.68744117932025
20
-322.90013348564173
10
151.68744117932025
20
-326.40013348564162
42
-0.41421356237313145
10
150.68744117932025
20
-327.40013348564162
10
133.68744117932027
20
-327.40013348564162
42
-0.41421356237313145
10
132.68744117932027
20
-326.40013348564162
10
132.68744117932027
20
-322.90013348564173
10
75.437441179320274
20
-322.90013348564173
10
75.437441179320288
20
-326.40013348564185
42
-0.41421356237309243
10
74.437441179320288
20
-327.40013348564185
10
57.93744117932026
20
-327.40013348564185
42
-0.41421356237309243
10
56.937441179320267
20
-326.40013348564185
10
56.93744117932026
20
-322.90013348564173
10
9.6874411793202491
20
-322.90013348564185
10
9.687441179320281
20
-326.40013348564185
42
-0.41421356237310347
10
8.6874411793202384
20
-327.40013348564185
10
-1.1875588206798493
20
-327.40013348564162
10
-1.187558820679814
20
-349.10441666209016
10
-1.1875588206798136
20
-352.91691666209022
10
-1.1875588206798304
20
-447.46263348564213
10
8.6874411793201709
20
-447.46263348564213
42
-0.41421356237312851
10
9.6874411793201674
20
-448.46263348564213
0
CIRCLE
5
108
100
AcDbEntity
8
0
100
AcDbCircle
10
72.52237714057145
20
-155.59714823211036
30
0
40
1.5999999999999983
210
0
220
0
230
1
0
CIRCLE
5
109
100
AcDbEntity
8
0
100
AcDbCircle
10
212.52237714057145
20
-155.59714823211033
30
0
40
1.6000000000000041
210
0
220
0
230
1
0
CIRCLE
5
110
100
AcDbEntity
8
0
100
AcDbCircle
10
72.499999999999986
20
-124.6170353263775
30
0
40
0.99999999999999778
210
0
220
0
230
1
0
CIRCLE
5
111
100
AcDbEntity
8
0
100
AcDbCircle
10
142.52237714057145
20
-155.59714823211033
30
0
40
1.6000000000000003
210
0
220
0
230
1
0
LWPOLYLINE
5
112
100
AcDbEntity
8
0
100
AcDbPolyline
90
28
70
1
43
0.0
10
104.05381167637148
20
-162.5971482321103
10
181.62124021217153
20
-162.5971482321103
10
184.80374021217148
20
-162.5971482321103
10
262.37116874797152
20
-162.5971482321103
10
265.55366874797159
20
-162.5971482321103
10
285.89737714057145
20
-162.5971482321103
10
285.89737714057145
20
-182.5971482321103
10
285.89737714057145
20
-186.40964823211033
10
285.89737714057151
20
-282.65964823211038
10
208.52237714057151
20
-282.65964823211038
42
0.4142135623730534
10
207.52237714057148
20
-283.65964823211038
10
207.52237714057148
20
-286.65964823211038
10
192.52237714057148
20
-286.65964823211038
10
192.52237714057148
20
-283.65964823211038
42
0.4142135623730534
10
191.52237714057148
20
-282.65964823211038
10
93.522377140571479
20
-282.65964823211038
42
0.414213562373069
10
92.522377140571479
20
-283.65964823211038
10
92.522377140571479
20
-286.65964823211038
10
77.522377140571479
20
-286.65964823211038
10
77.522377140571479
20
-283.65964823211038
42
0.414213562373069
10
76.522377140571493
20
-282.65964823211038
10
-0.85262285942853566
20
-282.65964823211038
10
-0.85262285942853344
20
-186.40964823211044
10
-0.85262285942853344
20
-182.59714823211041
10
-0.85262285942855565
20
-162.59714823211041
10
19.491377140571469
20
-162.59714823211038
10
23.303877140571466
20
-162.59714823211038
10
100.87130567637146
20
-162.5971482321103
0
LWPOLYLINE
5
113
100
AcDbEntity
8
0
100
AcDbPolyline
90
8
70
1
43
0.0
10
288.89737714057151
20
-147.59714823211024
10
-3.8526228594286138
20
-147.59714823211036
42
0.41421356237309048
10
-5.8526228594285756
20
-149.59714823211036
10
-5.8526228594284992
20
-290.6596482321105
42
0.41421356237309809
10
-3.8526228594284984
20
-292.65964823211044
10
288.89737714057156
20
-292.65964823211038
42
0.41421356237308982
10
290.89737714057151
20
-290.65964823211038
10
290.89737714057145
20
-149.59714823211027
42
0.41421356237309764
0
CIRCLE
5
114
100
AcDbEntity
8
0
100
AcDbCircle
10
282.44948878448668
20
7.4454646736226415
30
0
40
1
210
0
220
0
230
1
0
CIRCLE
5
115
100
AcDbEntity
8
0
100
AcDbCircle
10
142.5
20
-124.61703532637749
30
0
40
1
210
0
220
0
230
1
0
CIRCLE
5
116
100
AcDbEntity
8
0
100
AcDbCircle
10
282.52237714057145
20
-155.59714823211033
30
0
40
1.6000000000000023
210
0
220
0
230
1
0
LWPOLYLINE
5
117
100
AcDbEntity
8
0
100
AcDbPolyline
90
4
70
1
43
0.0
10
184.4750252667971
20
-19.554535326377387
10
184.4750252667971
20
0.44546467362259534
10
262.04245380259715
20
0.44546467362263092
10
262.04245380259715
20
-19.554535326377369
0
CIRCLE
5
118
100
AcDbEntity
8
0
100
AcDbCircle
10
2.4999999999999991
20
-124.6170353263775
30
0
40
0.99999999999999922
210
0
220
0
230
1
0
CIRCLE
5
119
100
AcDbEntity
8
0
100
AcDbCircle
10
142.4494887844867
20
7.4454646736225785
30
0
40
1
210
0
220
0
230
1
0
CIRCLE
5
120
100
AcDbEntity
8
0
100
AcDbCircle
10
2.4494887844866935
20
7.4454646736225136
30
0
40
1
210
0
220
0
230
1
0
CIRCLE
5
121
100
AcDbEntity
8
0
100
AcDbCircle
10
72.449488784486704
20
7.4454646736225438
30
0
40
1
210
0
220
0
230
1
0
CIRCLE
5
122
100
AcDbEntity
8
0
100
AcDbCircle
10
2.5223771405714501
20
-155.59714823211036
30
0
40
1.6000000000000003
210
0
220
0
230
1
0
CIRCLE
5
123
100
AcDbEntity
8
0
100
AcDbCircle
10
72.522377140571479
20
-287.65964823211044
30
0
40
1.6000000000000014
210
0
220
0
230
1
0
CIRCLE
5
124
100
AcDbEntity
8
0
100
AcDbCircle
10
282.5
20
-124.61703532637743
30
0
40
1.0000000000000142
210
0
220
0
230
1
0
CIRCLE
5
125
100
AcDbEntity
8
0
100
AcDbCircle
10
142.52237714057145
20
-287.65964823211038
30
0
40
1.6000000000000003
210
0
220
0
230
1
0
CIRCLE
5
126
100
AcDbEntity
8
0
100
AcDbCircle
10
212.4494887844867
20
7.4454646736226104
30
0
40
1
210
0
220
0
230
1
0
CIRCLE
5
127
100
AcDbEntity
8
0
100
AcDbCircle
10
282.52237714057151
20
-287.65964823211038
30
0
40
1.6000000000000014
210
0
220
0
230
1
0
CIRCLE
5
128
100
AcDbEntity
8
0
100
AcDbCircle
10
2.5223771405714857
20
-287.65964823211044
30
0
40
1.6000000000000003
210
0
220
0
230
1
0
CIRCLE
5
129
100
AcDbEntity
8
0
100
AcDbCircle
10
212.52237714057148
20
-287.65964823211038
30
0
40
1.6000000000000145
210
0
220
0
230
1
0
CIRCLE
5
130
100
AcDbEntity
8
0
100
AcDbCircle
10
2.1874411793202366
20
-320.40013348564173
30
0
40
1.6000000000000003
210
0
220
0
230
1
0
CIRCLE
5
131
100
AcDbEntity
8
0
100
AcDbCircle
10
142.23432308057193
20
-452.46263348564156
30
0
40
1.6000000000000003
210
0
220
0
230
1
0
LWPOLYLINE
5
132
100
AcDbEntity
8
0
100
AcDbPolyline
90
8
70
1
43
0.0
10
290.56244117932039
20
-455.4626334856415
10
290.56244117932039
20
-314.40013348564167
42
0.41421356237309503
10
288.56244117932039
20
-312.40013348564167
10
-4.1875588206799108
20
-312.40013348564185
42
0.41421356237309809
10
-6.1875588206798575
20
-314.40013348564185
10
-6.1875588206797971
20
-455.46263348564162
42
0.41421356237306922
10
-4.1875588206797962
20
-457.46263348564162
10
288.56244117932044
20
-457.46263348564156
42
0.4142135623730846
0
CIRCLE
5
133
100
AcDbEntity
8
0
100
AcDbCircle
10
2.187441179320281
20
-452.46263348564213
30
0
40
1.6000000000000003
210
0
220
0
230
1
0
CIRCLE
5
134
100
AcDbEntity
8
0
100
AcDbCircle
10
212.18744117932033
20
-452.46263348564156
30
0
40
1.6000000000000003
210
0
220
0
230
1
0
CIRCLE
5
135
100
AcDbEntity
8
0
100
AcDbCircle
10
72.187441179320231
20
-320.53338231778889
30
0
40
1.6000000000000003
210
0
220
0
230
1
0
CIRCLE
5
136
100
AcDbEntity
8
0
100
AcDbCircle
10
142.18744117932027
20
-320.40013348564173
30
0
40
1.6000000000000003
210
0
220
0
230
1
0
CIRCLE
5
137
100
AcDbEntity
8
0
100
AcDbCircle
10
212.18744117932033
20
-320.40013348564173
30
0
40
1.6000000000000003
210
0
220
0
230
1
0
CIRCLE
5
138
100
AcDbEntity
8
0
100
AcDbCircle
10
72.187441179320274
20
-452.46263348564156
30
0
40
1.6000000000000003
210
0
220
0
230
1
0
CIRCLE
5
139
100
AcDbEntity
8
0
100
AcDbCircle
10
282.18744117932027
20
-452.46263348564156
30
0
40
1.6000000000000003
210
0
220
0
230
1
0
CIRCLE
5
140
100
AcDbEntity
8
0
100
AcDbCircle
10
282.18744117932027
20
-320.40013348564173
30
0
40
1.6000000000000003
210
0
220
0
230
1
0
LWPOLYLINE
5
141
100
AcDbEntity
8
0
100
AcDbPolyline
90
20
70
1
43
0.0
10
60.46613746291257
20
-254.56187497476651
42
0.4142135623730846
10
62.466137462912528
20
-256.56187497476657
10
208.46613746291172
20
-256.56187497476674
42
0.41421356237308982
10
210.46613746291172
20
-254.56187497476674
10
210.46613746291172
20
-186.56187497476711
42
0.41421356237309503
10
208.46613746291172
20
-184.56187497476716
10
147.46613746291212
20
-184.56187497476716
42
0.41421356237309503
10
145.46613746291206
20
-186.56187497476719
10
145.46613746291206
20
-194.56187497476716
42
0.41421356237309503
10
147.46613746291212
20
-196.56187497476711
10
200.46613746291175
20
-196.56187497476711
10
200.46613746291172
20
-246.56187497476682
10
70.466137462912499
20
-246.56187497476668
10
70.46613746291257
20
-196.56187497476705
10
123.46613746291226
20
-196.56187497476711
42
0.41421356237310542
10
125.46613746291229
20
-194.56187497476716
10
125.46613746291222
20
-186.56187497476711
42
0.41421356237309503
10
123.46613746291233
20
-184.56187497476716
10
62.466137462912599
20
-184.56187497476708
42
0.41421356237309503
10
60.466137462912641
20
-186.56187497476711
0
CIRCLE
5
142
100
AcDbEntity
8
0
100
AcDbCircle
10
205.46613746291172
20
-192.56187497476719
30
0
40
1.6000000000000005
210
0
220
0
230
1
0
CIRCLE
5
143
100
AcDbEntity
8
0
100
AcDbCircle
10
65.46613746291257
20
-192.56187497476705
30
0
40
1.6000000000000005
210
0
220
0
230
1
0
CIRCLE
5
144
100
AcDbEntity
8
0
100
AcDbCircle
10
65.466137462912499
20
-251.56187497476668
30
0
40
1.5999999999999983
210
0
220
0
230
1
0
CIRCLE
5
145
100
AcDbEntity
8
0
100
AcDbCircle
10
205.46613746291169
20
-251.56187497476682
30
0
40
1.6000000000000036
210
0
220
0
230
1
0
LWPOLYLINE
5
146
100
AcDbEntity
8
0
100
AcDbPolyline
90
20
70
1
43
0.0
10
57.314811269026507
20
-416.55259474897764
42
0.4142135623730846
10
59.314811269026464
20
-418.55259474897764
10
205.31481126902631
20
-418.55259474897764
42
0.41421356237309503
10
207.31481126902639
20
-416.55259474897764
10
207.31481126902625
20
-348.55259474897764
42
0.41421356237309503
10
205.31481126902631
20
-346.5525947489777
10
144.31481126902636
20
-346.55259474897775
42
0.41421356237309503
10
142.31481126902639
20
-348.5525947489777
10
142.31481126902639
20
-356.55259474897775
42
0.41421356237309503
10
144.31481126902636
20
-358.5525947489777
10
197.31481126902634
20
-358.55259474897764
10
197.31481126902625
20
-408.55259474897764
10
67.314811269026492
20
-408.55259474897764
10
67.314811269026492
20
-358.5525947489777
10
120.31481126902645
20
-358.5525947489777
42
0.41421356237309503
10
122.31481126902648
20
-356.55259474897775
10
122.31481126902639
20
-348.5525947489777
42
0.41421356237309503
10
120.31481126902645
20
-346.55259474897775
10
59.314811269026521
20
-346.55259474897781
42
0.41421356237309503
10
57.314811269026563
20
-348.55259474897775
0
CIRCLE
5
147
100
AcDbEntity
8
0
100
AcDbCircle
10
202.31481126902634
20
-354.55259474897764
30
0
40
1.6000000000000003
210
0
220
0
230
1
0
CIRCLE
5
148
100
AcDbEntity
8
0
100
AcDbCircle
10
62.314811269026563
20
-354.55259474897781
30
0
40
1.6000000000000003
210
0
220
0
230
1
0
CIRCLE
5
149
100
AcDbEntity
8
0
100
AcDbCircle
10
62.314811269026507
20
-413.55259474897764
30
0
40
1.5999999999999981
210
0
220
0
230
1
0
CIRCLE
5
150
100
AcDbEntity
8
0
100
AcDbCircle
10
202.31481126902625
20
-413.55259474897764
30
0
40
1.6000000000000034
210
0
220
0
230
1
0
LWPOLYLINE
5
151
100
AcDbEntity
8
0
100
AcDbPolyline
90
28
70
1
43
0.0
10
285.89737714057105
20
-516.71005164120493
10
285.89737714057111
20
-612.96005164120481
10
208.52237714057122
20
-612.96005164120481
42
0.4142135623730534
10
207.52237714057119
20
-613.96005164120481
10
207.52237714057119
20
-616.96005164120481
10
192.52237714057122
20
-616.96005164120481
10
192.52237714057122
20
-613.96005164120481
42
0.4142135623730534
10
191.52237714057122
20
-612.96005164120481
10
93.522377140571336
20
-612.96005164120481
42
0.41421356237307944
10
92.522377140571336
20
-613.96005164120481
10
92.522377140571336
20
-616.96005164120481
10
77.522377140571365
20
-616.96005164120481
10
77.522377140571365
20
-613.96005164120481
42
0.41421356237307944
10
76.522377140571379
20
-612.96005164120481
10
-0.85262285942854432
20
-612.96005164120481
10
-0.8526228594285421
20
-516.71005164120504
10
-0.8526228594285421
20
-512.89755164120493
10
-0.85262285942856431
20
-492.89755164120498
10
19.491377140571434
20
-492.89755164120493
10
23.303877140571426
20
-492.89755164120493
10
100.87130567637131
20
-492.89755164120493
10
104.05381167637132
20
-492.89755164120493
10
181.62124021217127
20
-492.89755164120493
10
184.80374021217125
20
-492.89755164120493
10
262.37116874797118
20
-492.89755164120493
10
265.55366874797124
20
-492.89755164120493
10
285.89737714057105
20
-492.89755164120493
10
285.89737714057105
20
-512.89755164120481
0
LWPOLYLINE
5
152
100
AcDbEntity
8
0
100
AcDbPolyline
90
8
70
1
43
0.0
10
-3.8526228594285028
20
-622.96005164120493
10
288.89737714057117
20
-622.96005164120481
42
0.41421356237308982
10
290.89737714057111
20
-620.96005164120481
10
290.89737714057105
20
-479.89755164120487
42
0.41421356237310542
10
288.89737714057111
20
-477.89755164120487
10
-3.8526228594286183
20
-477.89755164120493
42
0.41421356237309048
10
-5.8526228594285783
20
-479.89755164120493
10
-5.852622859428501
20
-620.96005164120481
42
0.41421356237309809
0
CIRCLE
5
153
100
AcDbEntity
8
0
100
AcDbCircle
10
282.52237714057111
20
-617.96005164120481
30
0
40
1.6000000000000014
210
0
220
0
230
1
0
LWPOLYLINE
5
154
100
AcDbEntity
8
0
100
AcDbPolyline
90
20
70
1
43
0.0
10
200.46613746291143
20
-576.86227838386128
10
70.4661374629124
20
-576.86227838386117
10
70.466137462912457
20
-526.86227838386162
10
123.46613746291209
20
-526.86227838386162
42
0.41421356237310542
10
125.46613746291212
20
-524.86227838386174
10
125.46613746291203
20
-516.86227838386162
42
0.41421356237309503
10
123.46613746291214
20
-514.86227838386174
10
62.466137462912513
20
-514.86227838386162
42
0.41421356237309503
10
60.466137462912556
20
-516.86227838386162
10
60.466137462912485
20
-584.86227838386094
42
0.4142135623730846
10
62.466137462912442
20
-586.86227838386105
10
208.46613746291143
20
-586.86227838386117
42
0.41421356237308982
10
210.46613746291143
20
-584.86227838386117
10
210.46613746291143
20
-516.86227838386162
42
0.41421356237309503
10
208.46613746291143
20
-514.86227838386174
10
147.46613746291189
20
-514.86227838386174
42
0.41421356237309503
10
145.46613746291186
20
-516.86227838386174
10
145.46613746291186
20
-524.86227838386174
42
0.41421356237309503
10
147.46613746291189
20
-526.86227838386162
10
200.46613746291146
20
-526.86227838386162
0
CIRCLE
5
155
100
AcDbEntity
8
0
100
AcDbCircle
10
205.46613746291143
20
-522.86227838386174
30
0
40
1.6000000000000005
210
0
220
0
230
1
0
CIRCLE
5
156
100
AcDbEntity
8
0
100
AcDbCircle
10
142.52237714057122
20
-617.96005164120481
30
0
40
1.6000000000000003
210
0
220
0
230
1
0
CIRCLE
5
157
100
AcDbEntity
8
0
100
AcDbCircle
10
205.46613746291141
20
-581.86227838386128
30
0
40
1.6000000000000036
210
0
220
0
230
1
0
CIRCLE
5
158
100
AcDbEntity
8
0
100
AcDbCircle
10
282.52237714057105
20
-485.89755164120493
30
0
40
1.6000000000000023
210
0
220
0
230
1
0
CIRCLE
5
159
100
AcDbEntity
8
0
100
AcDbCircle
10
65.4661374629124
20
-581.86227838386117
30
0
40
1.5999999999999983
210
0
220
0
230
1
0
CIRCLE
5
160
100
AcDbEntity
8
0
100
AcDbCircle
10
212.52237714057117
20
-485.89755164120493
30
0
40
1.6000000000000041
210
0
220
0
230
1
0
CIRCLE
5
161
100
AcDbEntity
8
0
100
AcDbCircle
10
72.522377140571336
20
-485.89755164120498
30
0
40
1.5999999999999983
210
0
220
0
230
1
0
CIRCLE
5
162
100
AcDbEntity
8
0
100
AcDbCircle
10
65.466137462912471
20
-522.86227838386162
30
0
40
1.6000000000000005
210
0
220
0
230
1
0
CIRCLE
5
163
100
AcDbEntity
8
0
100
AcDbCircle
10
2.5223771405714372
20
-485.89755164120498
30
0
40
1.6000000000000003
210
0
220
0
230
1
0
CIRCLE
5
164
100
AcDbEntity
8
0
100
AcDbCircle
10
142.52237714057122
20
-485.89755164120493
30
0
40
1.6000000000000003
210
0
220
0
230
1
0
CIRCLE
5
165
100
AcDbEntity
8
0
100
AcDbCircle
10
2.5223771405714728
20
-617.96005164120493
30
0
40
1.6000000000000003
210
0
220
0
230
1
0
CIRCLE
5
166
100
AcDbEntity
8
0
100
AcDbCircle
10
72.522377140571379
20
-617.96005164120493
30
0
40
1.6000000000000014
210
0
220
0
230
1
0
CIRCLE
5
167
100
AcDbEntity
8
0
100
AcDbCircle
10
212.52237714057119
20
-617.96005164120481
30
0
40
1.6000000000000145
210
0
220
0
230
1
0
ENDSEC
0
SECTION
2
OBJECTS
0
DICTIONARY
5
C
100
AcDbDictionary
3
ACAD_GROUP
350
D
3
ACAD_MLINESTYLE
350
17
0
DICTIONARY
5
D
100
AcDbDictionary
0
DICTIONARY
5
1A
330
C
100
AcDbDictionary
0
DICTIONARY
5
17
100
AcDbDictionary
0
ENDSEC
0
EOF
