0
SECTION
2
HEADER
9
$INSUNITS
70
4
9
$ACADVER
1
AC1014
9
$HANDSEED
5
FFFF
0
ENDSEC
0
SECTION
2
TABLES
0
TABLE
2
VPORT
5
8
100
AcDbSymbolTable
0
ENDTAB
0
TABLE
2
LTYPE
5
5
100
AcDbSymbolTable
0
LTYPE
5
14
100
AcDbSymbolTableRecord
100
AcDbLinetypeTableRecord
2
BYBLOCK
70
0
0
LTYPE
5
15
100
AcDbSymbolTableRecord
100
AcDbLinetypeTableRecord
2
BYLAYER
70
0
0
ENDTAB
0
TABLE
2
LAYER
5
2
100
AcDbSymbolTable
70
2
0
LAYER
5
50
100
AcDbSymbolTableRecord
100
AcDbLayerTableRecord
2
0
70
0
6
CONTINUOUS
0
ENDTAB
0
TABLE
2
STYLE
5
3
100
AcDbSymbolTable
70
1
0
STYLE
5
11
100
AcDbSymbolTableRecord
100
AcDbTextStyleTableRecord
2
STANDARD
70
0
0
ENDTAB
0
TABLE
2
VIEW
5
6
100
AcDbSymbolTable
70
0
0
ENDTAB
0
TABLE
2
UCS
5
7
100
AcDbSymbolTable
70
0
0
ENDTAB
0
TABLE
2
APPID
5
9
100
AcDbSymbolTable
70
2
0
APPID
5
12
100
AcDbSymbolTableRecord
100
AcDbRegAppTableRecord
2
ACAD
70
0
0
ENDTAB
0
TABLE
2
DIMSTYLE
5
A
100
AcDbSymbolTable
70
1
0
ENDTAB
0
TABLE
2
BLOCK_RECORD
5
1
100
AcDbSymbolTable
70
1
0
BLOCK_RECORD
5
1F
100
AcDbSymbolTableRecord
100
AcDbBlockTableRecord
2
*MODEL_SPACE
0
BLOCK_RECORD
5
1B
100
AcDbSymbolTableRecord
100
AcDbBlockTableRecord
2
*PAPER_SPACE
0
ENDTAB
0
ENDSEC
0
SECTION
2
BLOCKS
0
BLOCK
5
20
100
AcDbEntity
100
AcDbBlockBegin
2
*MODEL_SPACE
0
ENDBLK
5
21
100
AcDbEntity
100
AcDbBlockEnd
0
BLOCK
5
1C
100
AcDbEntity
100
AcDbBlockBegin
2
*PAPER_SPACE
0
ENDBLK
5
1D
100
AcDbEntity
100
AcDbBlockEnd
0
ENDSEC
0
SECTION
2
ENTITIES
0
LWPOLYLINE
5
100
100
AcDbEntity
8
0
100
AcDbPolyline
90
22
70
1
43
0.0
10
106.15984838969815
20
-37.358421470714319
10
106.40358707650846
20
-39.343513773996939
10
110.62190822098408
20
-38.825569064525034
10
110.37816953417362
20
-36.840476761242428
10
109.26155511357713
20
-36.977579772573243
10
109.01781642676688
20
-34.992487469290609
10
138.29792790018564
20
-31.397341838838798
10
130.21689843922849
20
-50.435054212726833
42
-0.30096583913273106
10
128.3758887323236
20
-51.653591955748304
10
2.7458899791173863
20
-51.653591955748368
42
-0.23546874348332902
10
1.1486189590227851
20
-50.857222002052438
10
-0.65853332959767252
20
-48.459049915559127
10
72.293608816038684
20
-39.501653175280921
10
72.537347502849059
20
-41.486745478563584
10
71.42073308225207
20
-41.623848489894407
10
71.664471769062303
20
-43.608940793177041
10
75.882792913538296
20
-43.090996083705171
10
75.639054226728049
20
-41.105903780422551
10
74.522439806131615
20
-41.243006791753281
10
74.27870111932117
20
-39.257914488470639
10
107.03272412348434
20
-35.236226156100898
10
107.27646281029465
20
-37.221318459383554
0
CIRCLE
5
101
100
AcDbEntity
8
0
100
AcDbCircle
10
38.192993231289009
20
-47.528671985114748
30
0
40
1.6000000000000061
210
0
220
0
230
1
0
LINE
5
102
100
AcDbEntity
8
0
100
AcDbLine
10
71.664471769062303
20
-43.608940793177041
30
0
11
75.882792913538296
21
-43.090996083705171
31
0
0
LINE
5
103
100
AcDbEntity
8
0
100
AcDbLine
10
75.639054226728049
20
-41.105903780422551
30
0
11
74.522439806131615
21
-41.243006791753281
31
0
0
LINE
5
104
100
AcDbEntity
8
0
100
AcDbLine
10
72.537347502849059
20
-41.486745478563584
30
0
11
71.42073308225207
21
-41.623848489894407
31
0
0
LINE
5
105
100
AcDbEntity
8
0
100
AcDbLine
10
106.40358707650846
20
-39.343513773996939
30
0
11
110.62190822098408
21
-38.825569064525034
31
0
0
LINE
5
106
100
AcDbEntity
8
0
100
AcDbLine
10
71.42073308225207
20
-41.623848489894407
30
0
11
71.664471769062303
21
-43.608940793177041
31
0
0
LINE
5
107
100
AcDbEntity
8
0
100
AcDbLine
10
138.29792790018564
20
-31.397341838838798
30
0
11
130.21689843922849
21
-50.435054212726833
31
0
0
CIRCLE
5
108
100
AcDbEntity
8
0
100
AcDbCircle
10
23.223227781686685
20
-48.480576593722866
30
0
40
1.5999999999999841
210
0
220
0
230
1
0
LINE
5
109
100
AcDbEntity
8
0
100
AcDbLine
10
128.3758887323236
20
-51.653591955748304
30
0
11
2.7458899791173863
21
-51.653591955748368
31
0
0
LINE
5
110
100
AcDbEntity
8
0
100
AcDbLine
10
-0.65853332959767252
20
-48.459049915559127
30
0
11
72.293608816038684
21
-39.501653175280921
31
0
0
LINE
5
111
100
AcDbEntity
8
0
100
AcDbLine
10
74.522439806131615
20
-41.243006791753281
30
0
11
74.27870111932117
21
-39.257914488470639
31
0
0
LINE
5
112
100
AcDbEntity
8
0
100
AcDbLine
10
109.26155511357713
20
-36.977579772573243
30
0
11
109.01781642676688
21
-34.992487469290609
31
0
0
LWPOLYLINE
5
113
100
AcDbEntity
8
0
100
AcDbPolyline
90
7
70
1
43
0.0
10
63.378238235136877
20
10.559006973436649
10
131.14807239172711
20
10.559006973436693
42
0.30096583913271463
10
132.98908209863203
20
11.777544716458145
10
137.88868783026518
20
23.320292470929878
10
123.99304170728695
20
21.614121663257851
10
59.973814926421831
20
13.753549013625905
10
61.780967215042267
20
11.355376927132582
42
0.23546874348333127
0
LWPOLYLINE
5
114
100
AcDbEntity
8
0
100
AcDbPolyline
90
6
70
1
43
0.0
10
71.20513890965367
20
0.87500381159209439
10
69.397986621019939
20
3.273175898087338
42
0.23546874348334595
10
67.8007156009227
20
4.0695458517782406
10
8.498222604842196
20
4.0695458515878089
42
0.30096583913185443
10
6.6572128979437366
20
2.8510081085663592
10
2.2231813705889181
20
-7.5949155552895409
0
LWPOLYLINE
5
115
100
AcDbEntity
8
0
100
AcDbPolyline
90
10
70
1
43
0.0
10
-7.8340159236241567
20
-77.612258668038905
10
0.24701353733311227
20
-58.574546294150778
42
-0.30096583913273467
10
2.0880232442379922
20
-57.356008551129321
10
127.71802199744458
20
-57.356008551129214
42
-0.23546874348332469
10
129.31529301753918
20
-58.152378504825123
10
131.12244530615965
20
-60.550550591318427
10
67.103218525294892
20
-68.41112324095036
10
67.468826555510446
20
-71.388761695874308
10
13.87133436687904
20
-77.96970623975227
10
13.505726336663589
20
-74.992067784828308
0
CIRCLE
5
116
100
AcDbEntity
8
0
100
AcDbCircle
10
98.825341487308691
20
14.683926944070329
30
0
40
1.6000000000000061
210
0
220
0
230
1
0
LWPOLYLINE
5
117
100
AcDbEntity
8
0
100
AcDbPolyline
90
6
70
1
43
0.0
10
142.65535405168947
20
71.493547690192898
10
144.46250634030986
20
69.095375603699608
10
5.5060451105258323
20
52.033667526979301
10
13.587074571483155
20
71.071379900867441
42
-0.30096583913273273
10
15.428084278388038
20
72.289917643888913
10
141.05808303159486
20
72.289917643888842
42
-0.23546874348334484
0
LWPOLYLINE
5
118
100
AcDbEntity
8
0
100
AcDbPolyline
90
10
70
1
43
0.0
10
146.8722173536477
20
59.549151525763826
10
125.53247509336005
20
56.928960642553257
10
125.16686706314459
20
59.906599097477134
10
71.569374874513187
20
53.325654553599222
10
71.934982904728713
20
50.348016098675302
10
7.9157561238640017
20
42.487443449043347
10
9.7229084124844576
20
40.089271362550065
42
0.23546874348332605
10
11.320179432579053
20
39.292901408854149
10
136.95017818578555
20
39.292901408854242
42
0.30096583913272873
10
138.79118789269046
20
40.511439151875706
0
CIRCLE
5
119
100
AcDbEntity
8
0
100
AcDbCircle
10
25.772230714877509
20
63.088173094011779
30
0
40
1
210
0
220
0
230
1
0
LINE
5
120
100
AcDbEntity
8
0
100
AcDbLine
10
137.88868783026518
20
23.320292470929878
30
0
11
123.99304170728695
21
21.614121663257851
31
0
0
LWPOLYLINE
5
121
100
AcDbEntity
8
0
100
AcDbPolyline
90
6
70
1
43
0.0
10
69.64021480900368
20
-21.336283040362382
10
67.83306252036995
20
-18.938110953867149
10
136.81502005943472
20
-10.468191586985514
10
132.3809885320799
20
-20.914115250841409
42
-0.30096583913184871
10
130.53997882518146
20
-22.132652993862866
10
71.237485829100905
20
-22.132652994053284
42
-0.23546874348334415
0
LWPOLYLINE
5
122
100
AcDbEntity
8
0
100
AcDbPolyline
90
7
70
1
43
0.0
10
15.045159722736656
20
-39.677228805532906
10
1.1495135997583583
20
-41.383399613204936
10
6.0491193313915463
20
-29.840651858733203
42
-0.30096583913272962
10
7.8901290382964255
20
-28.622114115711746
10
75.659963194886743
20
-28.622114115711717
42
-0.23546874348333455
10
77.257234214981352
20
-29.41848406940764
10
79.06438650360181
20
-31.816656155900965
0
LWPOLYLINE
5
123
100
AcDbEntity
8
0
100
AcDbPolyline
90
6
70
1
43
0.0
10
56.072467312559091
20
-22.744486440538694
10
10.882209583897442
20
-22.744486440538626
42
-0.2354687434833308
10
9.2849385638028483
20
-21.948116486842721
10
7.477786275182372
20
-19.549944400349425
10
61.571551539654557
20
-12.908065184766508
10
57.913477019463983
20
-21.525948697517229
42
-0.30096583913272701
0
LWPOLYLINE
5
124
100
AcDbEntity
8
0
100
AcDbPolyline
90
6
70
1
43
0.0
10
128.15599184612608
20
4.6813792982635833
10
82.965734117464478
20
4.6813792982636464
42
0.30096583913273323
10
81.12472441055958
20
3.4628415552421696
10
77.466649890369041
20
-5.1550419575085504
10
131.56041515484117
20
1.4868372580743827
10
129.75326286622067
20
3.8850093445676914
42
0.23546874348332889
0
CIRCLE
5
125
100
AcDbEntity
8
0
100
AcDbCircle
10
31.359547386466872
20
-19.571471078513209
30
0
40
1.0000000000000004
210
0
220
0
230
1
0
CIRCLE
5
126
100
AcDbEntity
8
0
100
AcDbCircle
10
126.60603174929605
20
48.494645958731361
30
0
40
1
210
0
220
0
230
1
0
CIRCLE
5
127
100
AcDbEntity
8
0
100
AcDbCircle
10
92.708888593954327
20
0.55645932763004335
30
0
40
1.0000000000000004
210
0
220
0
230
1
0
CIRCLE
5
128
100
AcDbEntity
8
0
100
AcDbCircle
10
107.67865404355669
20
1.5083639362381573
30
0
40
1.0000000000000004
210
0
220
0
230
1
0
LWPOLYLINE
5
129
100
AcDbEntity
8
0
100
AcDbPolyline
90
6
70
1
43
0.0
10
-3.6171526216659089
20
-89.556654832468013
10
-5.4243049102863017
20
-87.158482745974695
10
133.53215631949786
20
-70.096774669254401
10
125.4511268585405
20
-89.134487043142556
42
-0.30096583913274105
10
123.61011715163562
20
-90.353024786163999
10
-2.0198816015713024
20
-90.353024786163942
42
-0.23546874348334648
0
CIRCLE
5
130
100
AcDbEntity
8
0
100
AcDbCircle
10
120.58074522902541
20
69.116902281863361
30
0
40
1
210
0
220
0
230
1
0
CIRCLE
5
131
100
AcDbEntity
8
0
100
AcDbCircle
10
83.855576037706342
20
13.732022335462188
30
0
40
1.5999999999999841
210
0
220
0
230
1
0
CIRCLE
5
132
100
AcDbEntity
8
0
100
AcDbCircle
10
106.68458908128522
20
-18.007733023420567
30
0
40
1.6000000000000061
210
0
220
0
230
1
0
CIRCLE
5
133
100
AcDbEntity
8
0
100
AcDbCircle
10
91.714823631682876
20
-18.959637632028748
30
0
40
1.5999999999999841
210
0
220
0
230
1
0
CIRCLE
5
134
100
AcDbEntity
8
0
100
AcDbCircle
10
105.61097977942305
20
68.164997673255215
30
0
40
1
210
0
220
0
230
1
0
CIRCLE
5
135
100
AcDbEntity
8
0
100
AcDbCircle
10
47.323377798340751
20
0.89653048975369742
30
0
40
1.5999999999999841
210
0
220
0
230
1
0
CIRCLE
5
136
100
AcDbEntity
8
0
100
AcDbCircle
10
31.797517235148412
20
42.465916770879659
30
0
40
1.5999999999999841
210
0
220
0
230
1
0
CIRCLE
5
137
100
AcDbEntity
8
0
100
AcDbCircle
10
46.767282684750661
20
43.417821379487769
30
0
40
1.6000000000000061
210
0
220
0
230
1
0
CIRCLE
5
138
100
AcDbEntity
8
0
100
AcDbCircle
10
40.212859942714879
20
-32.74703408634538
30
0
40
1.6000000000000061
210
0
220
0
230
1
0
LWPOLYLINE
5
139
100
AcDbEntity
8
0
100
AcDbPolyline
90
2
70
1
43
0.0
10
30.886780318416136
20
21.303700282490226
10
26.66845917394053
20
20.785755573018321
0
LWPOLYLINE
5
140
100
AcDbEntity
8
0
100
AcDbPolyline
90
14
70
1
43
0.0
10
61.407574481386327
20
25.051182592198455
10
61.651313168196573
20
23.066090288915824
10
62.767927588793029
20
23.203193300246557
10
63.011666275603474
20
21.21810099696393
10
30.257643271440244
20
17.196412664594163
10
30.013904584629962
20
19.181504967876815
10
31.130519005226454
20
19.318607979207595
10
30.886780318416136
20
21.303700282490226
10
31.130519005226454
20
19.318607979207595
10
30.013904584629962
20
19.181504967876815
10
30.257643271440244
20
17.196412664594163
10
63.011666275603474
20
21.21810099696393
10
62.767927588793029
20
23.203193300246557
10
61.651313168196573
20
23.066090288915824
0
LWPOLYLINE
5
141
100
AcDbEntity
8
0
100
AcDbPolyline
90
12
70
1
43
0.0
10
136.141748435902
20
32.817408510545711
10
137.94890072452242
20
30.419236424052411
10
64.996758578885959
20
21.461839683774212
10
64.753019892075571
20
23.44693198705686
10
65.869634312672574
20
23.58403499838769
10
65.625895625862341
20
25.569127301670321
10
61.407574481386327
20
25.051182592198455
10
65.625895625862341
20
25.569127301670321
10
65.869634312672574
20
23.58403499838769
10
64.753019892075571
20
23.44693198705686
10
64.996758578885959
20
21.461839683774212
10
137.94890072452242
20
30.419236424052411
0
LWPOLYLINE
5
142
100
AcDbEntity
8
0
100
AcDbPolyline
90
6
70
1
43
0.0
10
26.912197860750986
20
18.800663269735697
10
28.028812281347481
20
18.937766281066512
10
28.272550968157724
20
16.952673977783874
10
-1.0075605052611181
20
13.357528347332055
10
28.272550968157724
20
16.952673977783874
10
28.028812281347481
20
18.937766281066512
0
CIRCLE
5
143
100
AcDbEntity
8
0
100
AcDbCircle
10
107.24068419487524
20
-60.529023913154745
30
0
40
1.5999999999999841
210
0
220
0
230
1
0
CIRCLE
5
144
100
AcDbEntity
8
0
100
AcDbCircle
10
55.182625392317249
20
-31.795129477737238
30
0
40
1.5999999999999841
210
0
220
0
230
1
0
LINE
5
145
100
AcDbEntity
8
0
100
AcDbLine
10
59.973814926421831
20
13.753549013625905
30
0
11
61.780967215042267
21
11.355376927132582
31
0
0
LINE
5
146
100
AcDbEntity
8
0
100
AcDbLine
10
137.88868783026518
20
23.320292470929878
30
0
11
132.98908209863203
21
11.777544716458145
31
0
0
CIRCLE
5
147
100
AcDbEntity
8
0
100
AcDbCircle
10
18.457456200998159
20
-87.180009424138433
30
0
40
1
210
0
220
0
230
1
0
CIRCLE
5
148
100
AcDbEntity
8
0
100
AcDbCircle
10
12.432169680727513
20
-66.55775310100644
30
0
40
1
210
0
220
0
230
1
0
CIRCLE
5
149
100
AcDbEntity
8
0
100
AcDbCircle
10
32.353612348738388
20
-0.055374118854496501
30
0
40
1.6000000000000061
210
0
220
0
230
1
0
CIRCLE
5
150
100
AcDbEntity
8
0
100
AcDbCircle
10
46.329312836069221
20
-18.619566469905095
30
0
40
1.0000000000000004
210
0
220
0
230
1
0
LINE
5
151
100
AcDbEntity
8
0
100
AcDbLine
10
-1.0075605052611181
20
13.357528347332055
30
0
11
7.0734689556960451
21
32.395240721220127
31
0
0
CIRCLE
5
152
100
AcDbEntity
8
0
100
AcDbCircle
10
33.427221650600551
20
-86.228104815530301
30
0
40
1
210
0
220
0
230
1
0
CIRCLE
5
153
100
AcDbEntity
8
0
100
AcDbCircle
10
98.825341487308691
20
14.683926944070329
30
0
40
1.6000000000000061
210
0
220
0
230
1
0
CIRCLE
5
154
100
AcDbEntity
8
0
100
AcDbCircle
10
19.258625099090448
20
24.412033914364528
30
0
40
1.6000000000000143
210
0
220
0
230
1
0
CIRCLE
5
155
100
AcDbEntity
8
0
100
AcDbCircle
10
114.06713961323806
20
30.440763102216145
30
0
40
1.5999999999999841
210
0
220
0
230
1
0
CIRCLE
5
156
100
AcDbEntity
8
0
100
AcDbCircle
10
114.06713961323806
20
30.440763102216145
30
0
40
1.5999999999999841
210
0
220
0
230
1
0
LINE
5
157
100
AcDbEntity
8
0
100
AcDbLine
10
8.9144786626009349
20
33.613778464241605
30
0
11
134.54447741580739
21
33.613778464241648
31
0
0
CIRCLE
5
158
100
AcDbEntity
8
0
100
AcDbCircle
10
99.097374163635706
20
29.488858493608024
30
0
40
1.6000000000000061
210
0
220
0
230
1
0
CIRCLE
5
159
100
AcDbEntity
8
0
100
AcDbCircle
10
19.258625099090448
20
24.412033914364528
30
0
40
1.6000000000000143
210
0
220
0
230
1
0
LINE
5
160
100
AcDbEntity
8
0
100
AcDbLine
10
59.973814926421831
20
13.753549013625905
30
0
11
123.99304170728695
21
21.614121663257851
31
0
0
CIRCLE
5
161
100
AcDbEntity
8
0
100
AcDbCircle
10
99.097374163635706
20
29.488858493608024
30
0
40
1.6000000000000061
210
0
220
0
230
1
0
LINE
5
162
100
AcDbEntity
8
0
100
AcDbLine
10
8.9144786626009349
20
33.613778464241605
30
0
11
134.54447741580739
21
33.613778464241648
31
0
0
CIRCLE
5
163
100
AcDbEntity
8
0
100
AcDbCircle
10
92.270918745272965
20
-61.48092852176287
30
0
40
1.6000000000000061
210
0
220
0
230
1
0
CIRCLE
5
164
100
AcDbEntity
8
0
100
AcDbCircle
10
83.855576037706342
20
13.732022335462188
30
0
40
1.5999999999999841
210
0
220
0
230
1
0
CIRCLE
5
165
100
AcDbEntity
8
0
100
AcDbCircle
10
113.26597071514612
20
-81.151280236286837
30
0
40
1
210
0
220
0
230
1
0
LINE
5
166
100
AcDbEntity
8
0
100
AcDbLine
10
75.882792913538296
20
-43.090996083705171
30
0
11
75.639054226728049
21
-41.105903780422551
31
0
0
CIRCLE
5
167
100
AcDbEntity
8
0
100
AcDbCircle
10
38.192993231289009
20
-47.528671985114748
30
0
40
1.6000000000000061
210
0
220
0
230
1
0
LINE
5
168
100
AcDbEntity
8
0
100
AcDbLine
10
106.15984838969815
20
-37.358421470714319
30
0
11
106.40358707650846
21
-39.343513773996939
31
0
0
LINE
5
169
100
AcDbEntity
8
0
100
AcDbLine
10
72.293608816038684
20
-39.501653175280921
30
0
11
72.537347502849059
21
-41.486745478563584
31
0
0
LINE
5
170
100
AcDbEntity
8
0
100
AcDbLine
10
-1.0075605052611181
20
13.357528347332055
30
0
11
7.0734689556960451
21
32.395240721220127
31
0
0
LINE
5
171
100
AcDbEntity
8
0
100
AcDbLine
10
110.37816953417362
20
-36.840476761242428
30
0
11
109.26155511357713
21
-36.977579772573243
31
0
0
LWPOLYLINE
5
172
100
AcDbEntity
8
0
100
AcDbPolyline
90
2
70
1
43
0.0
10
26.66845917394053
20
20.785755573018321
10
26.912197860750986
20
18.800663269735697
0
LINE
5
173
100
AcDbEntity
8
0
100
AcDbLine
10
131.14807239172711
20
10.559006973436693
30
0
11
63.378238235136877
21
10.559006973436649
31
0
0
LINE
5
174
100
AcDbEntity
8
0
100
AcDbLine
10
74.27870111932117
20
-39.257914488470639
30
0
11
107.03272412348434
21
-35.236226156100898
31
0
0
CIRCLE
5
175
100
AcDbEntity
8
0
100
AcDbCircle
10
23.223227781686685
20
-48.480576593722866
30
0
40
1.5999999999999841
210
0
220
0
230
1
0
LINE
5
176
100
AcDbEntity
8
0
100
AcDbLine
10
110.62190822098408
20
-38.825569064525034
30
0
11
110.37816953417362
21
-36.840476761242428
31
0
0
LINE
5
177
100
AcDbEntity
8
0
100
AcDbLine
10
109.01781642676688
20
-34.992487469290609
30
0
11
138.29792790018564
21
-31.397341838838798
31
0
0
CIRCLE
5
178
100
AcDbEntity
8
0
100
AcDbCircle
10
118.03174229583412
20
-42.451847405871241
30
0
40
1.6000000000000143
210
0
220
0
230
1
0
LINE
5
179
100
AcDbEntity
8
0
100
AcDbLine
10
107.27646281029465
20
-37.221318459383554
30
0
11
106.15984838969815
21
-37.358421470714319
31
0
0
LINE
5
180
100
AcDbEntity
8
0
100
AcDbLine
10
107.03272412348434
20
-35.236226156100898
30
0
11
107.27646281029465
21
-37.221318459383554
31
0
0
CIRCLE
5
181
100
AcDbEntity
8
0
100
AcDbCircle
10
118.03174229583412
20
-42.451847405871241
30
0
40
1.6000000000000143
210
0
220
0
230
1
0
LINE
5
182
100
AcDbEntity
8
0
100
AcDbLine
10
1.1486189590227851
20
-50.857222002052438
30
0
11
-0.65853332959767252
21
-48.459049915559127
31
0
0
ARC
5
183
100
AcDbEntity
8
0
100
AcDbCircle
10
8.9144786626009456
20
31.613778464241591
30
0
40
2.0000000000000151
210
0
220
0
230
1
100
AcDbArc
50
90.000000000000313
51
157.00000000000054
0
ARC
5
184
100
AcDbEntity
8
0
100
AcDbCircle
10
134.54447741580739
20
31.613778464241676
30
0
40
1.9999999999999813
210
0
220
-0
230
1
100
AcDbArc
50
36.999999999998174
51
90
0
ENDSEC
0
SECTION
2
OBJECTS
0
DICTIONARY
5
C
100
AcDbDictionary
3
ACAD_GROUP
350
D
3
ACAD_MLINESTYLE
350
17
0
DICTIONARY
5
D
100
AcDbDictionary
0
DICTIONARY
5
1A
330
C
100
AcDbDictionary
0
DICTIONARY
5
17
100
AcDbDictionary
0
ENDSEC
0
EOF
